<svg xmlns="http://www.w3.org/2000/svg" xmlns:xlink="http://www.w3.org/1999/xlink" width="300" zoomAndPan="magnify" viewBox="0 0 224.87999 149.999998" height="200" preserveAspectRatio="xMidYMid meet" version="1.0"><defs><clipPath id="a654dd36b0"><path d="M 0 11.625 L 224.761719 11.625 L 224.761719 138.308594 L 0 138.308594 Z M 0 11.625 " clip-rule="nonzero"/></clipPath></defs><g clip-path="url(#a654dd36b0)"><path fill="#b7ad98" d="M 214.214844 92.3125 C 214.8125 92.785156 215.398438 93.179688 215.902344 93.652344 C 216.746094 94.433594 217.566406 95.25 218.347656 96.097656 C 219.214844 97.03125 220.035156 98.003906 220.863281 98.964844 C 221.109375 99.257812 221.320312 99.652344 221.140625 100.003906 C 220.96875 100.34375 220.578125 100.480469 220.164062 100.464844 C 220.070312 100.457031 219.980469 100.457031 219.890625 100.464844 C 219.605469 100.5 219.222656 100.3125 219.09375 100.675781 C 219.046875 100.800781 219.347656 101.050781 219.5 101.238281 C 220.246094 102.171875 221.003906 103.097656 221.75 104.039062 C 222.019531 104.378906 222.042969 104.769531 221.734375 105.078125 C 221.3125 105.507812 221.238281 106.019531 221.164062 106.574219 C 221.050781 107.476562 220.824219 108.375 220.644531 109.269531 C 220.628906 109.328125 220.636719 109.390625 220.628906 109.441406 C 220.570312 110.359375 220.464844 111.269531 220.457031 112.191406 C 220.433594 115.582031 220.457031 118.984375 220.441406 122.378906 C 220.441406 122.75 220.597656 123.148438 220.28125 123.5 C 220.214844 123.578125 220.351562 123.886719 220.457031 124.042969 C 221.292969 125.300781 221.644531 126.769531 222.328125 128.09375 C 222.835938 129.0625 223.324219 130.050781 223.8125 131.027344 C 224.03125 131.457031 224.210938 131.902344 224.460938 132.308594 C 224.753906 132.78125 224.617188 133.292969 224.617188 133.78125 C 224.617188 134.074219 223.964844 134.371094 223.617188 134.292969 C 223.339844 134.234375 223.058594 134.160156 222.773438 134.128906 C 221.816406 134.023438 220.855469 134.03125 219.921875 133.765625 C 219.808594 133.738281 219.679688 133.757812 219.558594 133.757812 C 218.558594 133.773438 217.589844 133.601562 216.617188 133.40625 C 215.925781 133.269531 215.210938 133.292969 214.511719 133.203125 C 213.855469 133.121094 213.207031 132.976562 212.554688 132.878906 C 211.980469 132.796875 211.402344 132.734375 210.824219 132.660156 C 209.378906 132.480469 207.933594 132.351562 206.503906 132.097656 C 205.183594 131.863281 203.867188 131.699219 202.542969 131.546875 C 201.414062 131.417969 200.277344 131.292969 199.148438 131.179688 C 197.710938 131.035156 196.273438 130.929688 194.84375 130.800781 C 193.984375 130.726562 193.113281 130.792969 192.285156 130.628906 C 191.148438 130.402344 190.011719 130.605469 188.898438 130.464844 C 186.257812 130.117188 183.609375 130.359375 180.964844 130.304688 C 178.292969 130.261719 175.621094 130.167969 172.957031 130.34375 C 171.21875 130.457031 169.472656 130.296875 167.757812 130.515625 C 166.109375 130.726562 164.453125 130.484375 162.828125 130.6875 C 161.179688 130.898438 159.523438 130.679688 157.898438 130.882812 C 156.761719 131.027344 155.625 130.878906 154.511719 131.058594 C 153.433594 131.230469 152.351562 131.066406 151.3125 131.246094 C 150.238281 131.433594 149.160156 131.246094 148.113281 131.417969 C 147.164062 131.578125 146.21875 131.488281 145.277344 131.59375 C 143.777344 131.757812 142.289062 131.902344 140.785156 131.953125 C 139.527344 132 138.269531 132.132812 137.019531 132.316406 C 135.832031 132.488281 134.632812 132.585938 133.4375 132.691406 C 132.152344 132.796875 130.863281 132.917969 129.585938 133.066406 C 128.070312 133.242188 126.542969 133.359375 125.054688 133.753906 C 123.714844 134.113281 122.390625 134.503906 121.246094 135.316406 C 120.027344 136.183594 118.613281 136.589844 117.21875 137.019531 C 115.699219 137.484375 114.117188 137.476562 112.554688 137.371094 C 111.4375 137.296875 110.339844 136.972656 109.226562 136.859375 C 107.992188 136.738281 106.847656 136.339844 105.679688 135.964844 C 104.621094 135.625 103.664062 135.089844 102.722656 134.550781 C 102.203125 134.257812 101.683594 134.039062 101.152344 133.960938 C 99.75 133.765625 98.382812 133.464844 96.996094 133.226562 C 95.875 133.03125 94.730469 133 93.601562 132.832031 C 92.203125 132.628906 90.789062 132.601562 89.386719 132.433594 C 88.222656 132.300781 87.0625 132.398438 85.910156 132.292969 C 82.238281 131.960938 78.550781 132.007812 74.882812 132.164062 C 71.265625 132.316406 67.644531 132.132812 64.039062 132.335938 C 62.699219 132.414062 61.34375 132.316406 60.019531 132.511719 C 58.855469 132.683594 57.6875 132.511719 56.542969 132.691406 C 55.4375 132.863281 54.332031 132.699219 53.253906 132.871094 C 52.207031 133.042969 51.160156 132.878906 50.144531 133.050781 C 49.160156 133.21875 48.175781 133.066406 47.21875 133.234375 C 46.292969 133.390625 45.367188 133.246094 44.472656 133.414062 C 43.605469 133.570312 42.746094 133.464844 41.90625 133.578125 C 40.503906 133.773438 39.089844 133.8125 37.683594 133.933594 C 36.515625 134.03125 35.355469 134.167969 34.191406 134.292969 C 33.144531 134.40625 32.097656 134.503906 31.066406 134.664062 C 30 134.835938 28.929688 134.949219 27.851562 135.039062 C 26.617188 135.136719 25.398438 135.40625 24.164062 135.558594 C 23.316406 135.664062 22.441406 135.605469 21.605469 135.769531 C 20.808594 135.925781 19.996094 135.835938 19.199219 136.085938 C 18.597656 136.273438 17.917969 136.234375 17.277344 136.289062 C 16.519531 136.355469 15.734375 136.324219 14.992188 136.492188 C 13.976562 136.710938 12.929688 136.679688 11.929688 137.003906 C 11.4375 137.160156 10.890625 137.125 10.371094 137.207031 C 9.234375 137.378906 8.097656 137.582031 6.953125 137.75 C 6.34375 137.839844 5.726562 137.855469 5.117188 137.945312 C 4.460938 138.042969 3.820312 138.230469 3.175781 138.289062 C 2.484375 138.351562 1.773438 138.367188 1.082031 138.28125 C 0.375 138.199219 0.164062 137.546875 0.53125 136.792969 C 0.78125 136.289062 1.039062 135.792969 1.300781 135.296875 C 2.082031 133.828125 2.851562 132.351562 3.664062 130.90625 C 4.289062 129.800781 4.882812 128.679688 5.152344 127.429688 C 5.238281 127.03125 5.378906 126.578125 5.265625 126.21875 C 5.003906 125.390625 5.214844 124.554688 5.101562 123.742188 C 4.875 122.011719 5.085938 120.257812 4.890625 118.542969 C 4.65625 116.496094 4.84375 114.460938 4.742188 112.421875 C 4.6875 111.414062 4.753906 110.414062 4.605469 109.398438 C 4.460938 108.449219 4.671875 107.449219 4.753906 106.476562 C 4.769531 106.328125 4.945312 106.199219 5.050781 106.054688 C 5.839844 104.957031 6.636719 103.867188 7.417969 102.757812 C 7.464844 102.699219 7.410156 102.472656 7.382812 102.464844 C 7.066406 102.421875 6.878906 102.253906 6.929688 101.929688 C 6.976562 101.621094 7 101.269531 7.171875 101.035156 C 7.863281 100.101562 8.625 99.207031 9.347656 98.289062 C 10.371094 96.988281 11.3125 95.609375 12.402344 94.375 C 13.53125 93.101562 14.328125 91.582031 15.570312 90.417969 C 15.730469 90.265625 15.730469 90.117188 15.449219 90.0625 C 14.832031 89.949219 14.214844 89.8125 13.597656 89.703125 C 13.042969 89.605469 12.484375 89.511719 11.980469 89.210938 C 11.378906 88.84375 11.316406 88.519531 11.792969 88.015625 C 12.671875 87.074219 13.523438 86.113281 14.441406 85.199219 C 15.628906 84.019531 16.894531 82.898438 18.085938 81.714844 C 19.144531 80.65625 20.132812 79.527344 21.183594 78.457031 C 21.960938 77.675781 22.804688 76.953125 23.609375 76.191406 C 23.722656 76.085938 23.765625 75.90625 23.839844 75.753906 C 23.699219 75.734375 23.5625 75.695312 23.421875 75.679688 C 22.074219 75.558594 20.726562 75.492188 19.386719 75.304688 C 17.59375 75.054688 15.804688 74.746094 14.027344 74.394531 C 13.109375 74.210938 12.199219 74.085938 11.265625 74.023438 C 10.835938 73.996094 10.355469 73.8125 10.023438 73.550781 C 9.632812 73.242188 9.769531 72.683594 9.894531 72.292969 C 10.25 71.203125 10.695312 70.140625 11.121094 69.070312 C 11.730469 67.542969 12.53125 66.113281 13.492188 64.773438 C 13.984375 64.089844 14.488281 63.414062 15.035156 62.773438 C 16.066406 61.582031 17.121094 60.417969 18.183594 59.25 C 19.070312 58.28125 19.980469 57.324219 20.882812 56.367188 C 22.101562 55.082031 23.308594 53.785156 24.558594 52.523438 C 29.464844 47.539062 34.371094 42.566406 39.292969 37.605469 C 40.496094 36.394531 41.722656 35.1875 43.019531 34.074219 C 44.539062 32.757812 46.140625 31.53125 47.714844 30.265625 C 49.191406 29.085938 50.648438 27.875 52.171875 26.738281 C 53.382812 25.835938 54.683594 25.035156 55.925781 24.171875 C 56.972656 23.441406 57.988281 23.613281 59.042969 24.125 C 60.402344 24.789062 61.78125 25.414062 63.152344 26.058594 C 64.648438 26.765625 66.167969 27.429688 67.628906 28.210938 C 68.109375 28.476562 68.195312 28.296875 68.398438 27.972656 C 69.496094 26.210938 70.609375 24.457031 71.730469 22.710938 C 72.785156 21.070312 73.640625 19.324219 74.457031 17.5625 C 75.09375 16.179688 75.78125 14.816406 75.921875 13.257812 C 75.953125 12.933594 76.109375 12.609375 76.238281 12.300781 C 76.488281 11.730469 77.007812 11.609375 77.472656 12.015625 C 78.414062 12.820312 79.378906 13.613281 80.28125 14.46875 C 81.441406 15.570312 82.628906 16.667969 83.667969 17.878906 C 85.171875 19.625 86.550781 21.46875 87.996094 23.269531 C 88.859375 24.34375 89.792969 25.359375 90.621094 26.457031 C 91.847656 28.105469 93.121094 29.710938 94.332031 31.375 C 95.6875 33.230469 97.019531 35.105469 98.285156 37.027344 C 99.222656 38.449219 100.113281 39.902344 100.984375 41.359375 C 102.03125 43.105469 103.09375 44.84375 104.0625 46.636719 C 104.988281 48.335938 105.808594 50.097656 106.660156 51.835938 C 107.976562 54.539062 109.066406 57.324219 110.167969 60.125 C 111.128906 62.585938 111.875 65.113281 112.816406 67.582031 C 113.117188 68.371094 113.199219 69.238281 113.410156 70.066406 C 113.457031 70.253906 113.582031 70.417969 113.675781 70.59375 C 113.765625 70.449219 113.871094 70.3125 113.953125 70.171875 C 114.164062 69.773438 114.34375 69.359375 114.585938 68.972656 C 115.519531 67.476562 116.421875 65.957031 117.421875 64.511719 C 118.476562 62.992188 119.636719 61.539062 120.757812 60.0625 C 121.914062 58.527344 123.179688 57.074219 124.550781 55.71875 C 126.515625 53.777344 128.433594 51.800781 130.414062 49.871094 C 132.023438 48.316406 133.679688 46.800781 135.34375 45.304688 C 136.636719 44.136719 137.945312 42.992188 139.300781 41.894531 C 140.8125 40.675781 142.386719 39.53125 143.921875 38.34375 C 146.210938 36.582031 148.730469 35.183594 151.148438 33.617188 C 154.382812 31.523438 157.859375 29.90625 161.285156 28.191406 C 162.964844 27.347656 164.695312 26.617188 166.394531 25.8125 C 167.109375 25.472656 167.800781 25.089844 168.480469 24.691406 C 168.796875 24.503906 169.03125 24.539062 169.359375 24.691406 C 170.414062 25.164062 171.355469 25.773438 172.257812 26.496094 C 173.75 27.691406 175.292969 28.828125 176.820312 29.980469 C 177.765625 30.695312 178.730469 31.382812 179.664062 32.109375 C 180.882812 33.058594 182.09375 34.03125 183.285156 35.007812 C 183.878906 35.496094 184.441406 36.023438 185.015625 36.550781 C 186.023438 37.492188 187.03125 38.433594 188.027344 39.382812 C 189.53125 40.8125 191.042969 42.234375 192.511719 43.703125 C 193.46875 44.648438 194.386719 45.644531 195.28125 46.652344 C 196.355469 47.863281 197.402344 49.097656 198.433594 50.347656 C 199.714844 51.90625 200.992188 53.460938 202.226562 55.050781 C 204.085938 57.429688 206.066406 59.71875 207.773438 62.214844 C 209.039062 64.066406 210.414062 65.835938 211.605469 67.734375 C 212.5 69.15625 213.183594 70.710938 213.9375 72.21875 C 214.210938 72.761719 213.628906 73.632812 212.988281 73.6875 C 212.109375 73.761719 211.214844 73.769531 210.339844 73.882812 C 209.285156 74.015625 208.25 74.242188 207.195312 74.414062 C 206.675781 74.5 206.148438 74.527344 205.636719 74.605469 C 204.703125 74.738281 203.777344 74.972656 202.851562 75.09375 C 201.988281 75.207031 201.128906 75.339844 200.277344 75.515625 C 198.96875 75.777344 197.660156 76.070312 196.355469 76.371094 C 195.003906 76.679688 193.648438 76.996094 192.300781 77.335938 C 190.652344 77.75 188.996094 78.132812 187.378906 78.636719 C 185.261719 79.300781 183.171875 80.039062 181.085938 80.796875 C 179.402344 81.414062 177.753906 82.113281 176.097656 82.808594 C 170.804688 85.011719 165.703125 87.625 160.621094 90.265625 C 158.417969 91.410156 156.273438 92.667969 154.105469 93.871094 C 152.796875 94.601562 151.476562 95.308594 150.199219 96.082031 C 148.597656 97.054688 146.976562 98.019531 145.441406 99.09375 C 143.667969 100.335938 141.957031 101.683594 140.234375 103.007812 C 138.804688 104.105469 137.382812 105.21875 135.980469 106.355469 C 135.0625 107.101562 134.207031 107.90625 133.296875 108.660156 C 132.46875 109.34375 131.601562 109.984375 130.757812 110.660156 C 130.277344 111.054688 129.808594 111.46875 129.351562 111.882812 C 128.449219 112.707031 127.550781 113.550781 126.65625 114.386719 C 124.796875 116.125 122.910156 117.835938 121.085938 119.609375 C 119.753906 120.914062 118.507812 122.296875 117.21875 123.644531 C 117.160156 123.703125 117.144531 123.808594 117.105469 123.898438 C 117.210938 123.871094 117.324219 123.855469 117.414062 123.800781 C 118.648438 123.050781 119.988281 122.476562 121.132812 121.558594 C 122.308594 120.617188 123.535156 119.753906 124.738281 118.851562 C 125.988281 117.910156 127.230469 116.960938 128.476562 116.019531 C 129.449219 115.289062 130.421875 114.554688 131.398438 113.835938 C 132.488281 113.03125 133.582031 112.226562 134.6875 111.460938 C 136.589844 110.136719 138.503906 108.824219 140.4375 107.539062 C 141.234375 107.003906 142.101562 106.574219 142.929688 106.085938 C 143.734375 105.613281 144.480469 104.988281 145.34375 104.671875 C 146.519531 104.242188 147.578125 103.625 148.695312 103.082031 C 151.394531 101.765625 154.148438 100.589844 156.957031 99.515625 C 160.050781 98.332031 163.160156 97.199219 166.328125 96.210938 C 168.5625 95.519531 170.789062 94.796875 173.0625 94.230469 C 174.492188 93.878906 175.902344 93.449219 177.347656 93.15625 C 178.347656 92.953125 179.324219 92.644531 180.324219 92.441406 C 181.703125 92.164062 183.097656 91.945312 184.480469 91.703125 C 185.867188 91.460938 187.25 91.183594 188.644531 90.988281 C 189.832031 90.816406 191.027344 90.753906 192.21875 90.605469 C 193.453125 90.445312 194.671875 90.226562 195.90625 90.070312 C 196.726562 89.972656 197.5625 90.011719 198.375 89.859375 C 199.261719 89.703125 200.1875 89.851562 201.054688 89.519531 C 201.1875 89.46875 201.355469 89.519531 201.503906 89.511719 C 202.542969 89.453125 203.582031 89.398438 204.613281 89.332031 C 205.191406 89.296875 205.78125 89.210938 206.359375 89.152344 C 206.9375 89.089844 207.527344 89.03125 208.105469 88.972656 C 208.164062 88.964844 208.253906 88.992188 208.285156 88.964844 C 208.8125 88.339844 209.511719 88.65625 210.144531 88.617188 C 210.898438 88.574219 211.664062 88.632812 212.417969 88.601562 C 213.546875 88.566406 214.675781 88.488281 215.796875 88.421875 C 215.878906 88.414062 215.957031 88.375 216.039062 88.347656 C 216.007812 88.242188 216.007812 88.105469 215.941406 88.039062 C 214.53125 86.683594 213.132812 85.3125 211.703125 83.988281 C 210.972656 83.3125 210.191406 82.679688 209.40625 82.054688 C 208.40625 81.265625 207.390625 80.488281 206.367188 79.738281 C 205.328125 78.96875 204.265625 78.222656 203.207031 77.488281 C 202.671875 77.109375 202.105469 76.765625 201.574219 76.386719 C 201.332031 76.222656 201.160156 75.949219 201.398438 75.71875 C 201.558594 75.558594 201.902344 75.460938 202.113281 75.523438 C 202.511719 75.636719 202.90625 75.839844 203.242188 76.070312 C 205.085938 77.34375 206.929688 78.617188 208.746094 79.933594 C 210.242188 81.015625 211.6875 82.167969 213.019531 83.460938 C 214.203125 84.613281 215.421875 85.726562 216.601562 86.878906 C 216.917969 87.179688 217.1875 87.542969 217.4375 87.894531 C 217.695312 88.265625 217.46875 88.882812 217.097656 89.152344 C 216.640625 89.492188 216.097656 89.597656 215.585938 89.664062 C 214.53125 89.808594 213.457031 89.8125 212.386719 89.867188 C 212.175781 89.882812 211.957031 89.851562 211.761719 89.898438 C 211.605469 89.933594 211.476562 90.054688 211.332031 90.144531 C 211.445312 90.234375 211.558594 90.324219 211.679688 90.417969 C 212.523438 91.054688 213.351562 91.65625 214.214844 92.3125 M 189.785156 76.613281 C 189.875 76.613281 189.96875 76.636719 190.058594 76.613281 C 191.457031 76.253906 192.84375 75.867188 194.25 75.53125 C 195.4375 75.242188 196.644531 75.003906 197.839844 74.753906 C 199.015625 74.511719 200.195312 74.289062 201.375 74.070312 C 202.199219 73.917969 203.023438 73.796875 203.84375 73.65625 C 204.777344 73.496094 205.703125 73.292969 206.636719 73.167969 C 207.398438 73.0625 208.171875 73.089844 208.925781 72.964844 C 209.996094 72.773438 211.054688 72.609375 212.148438 72.609375 C 212.726562 72.609375 212.765625 72.5625 212.476562 72.015625 C 211.785156 70.691406 211.117188 69.359375 210.347656 68.078125 C 209.640625 66.90625 208.84375 65.78125 208.039062 64.667969 C 207.105469 63.375 206.132812 62.117188 205.164062 60.851562 C 204.140625 59.515625 203.109375 58.183594 202.054688 56.863281 C 201.414062 56.058594 200.714844 55.300781 200.074219 54.5 C 199.15625 53.371094 198.277344 52.214844 197.359375 51.078125 C 196.914062 50.527344 196.410156 50.015625 195.949219 49.472656 C 194.898438 48.246094 193.910156 46.945312 192.78125 45.792969 C 190.757812 43.722656 188.65625 41.730469 186.558594 39.734375 C 185.421875 38.652344 184.230469 37.613281 183.042969 36.582031 C 181.890625 35.582031 180.734375 34.570312 179.535156 33.625 C 178.429688 32.75 177.253906 31.953125 176.125 31.101562 C 175.082031 30.320312 174.050781 29.523438 173.019531 28.722656 C 171.957031 27.910156 170.917969 27.074219 169.835938 26.292969 C 169.441406 26.007812 169.015625 25.917969 168.472656 26.1875 C 165.875 27.460938 163.226562 28.617188 160.636719 29.898438 C 158.566406 30.914062 156.535156 32.011719 154.519531 33.132812 C 152.808594 34.082031 151.101562 35.046875 149.492188 36.144531 C 146.894531 37.90625 144.191406 39.515625 141.820312 41.585938 C 140.589844 42.664062 139.269531 43.632812 138.023438 44.6875 C 136.929688 45.605469 135.867188 46.554688 134.824219 47.515625 C 133.015625 49.179688 131.210938 50.835938 129.449219 52.542969 C 128.351562 53.605469 127.378906 54.800781 126.28125 55.863281 C 124.285156 57.78125 122.480469 59.859375 120.824219 62.074219 C 120.050781 63.113281 119.273438 64.148438 118.550781 65.226562 C 117.460938 66.828125 116.375 68.441406 115.367188 70.09375 C 114.660156 71.253906 114.066406 72.488281 113.996094 73.890625 C 113.953125 74.988281 113.878906 76.085938 113.847656 77.179688 C 113.667969 82.519531 114.011719 87.863281 113.644531 93.207031 C 113.570312 94.328125 113.644531 95.457031 113.78125 96.59375 C 113.976562 98.222656 113.71875 99.875 113.96875 101.523438 C 114.15625 102.75 113.953125 104.015625 114.140625 105.273438 C 114.335938 106.558594 114.277344 107.890625 114.3125 109.195312 C 114.441406 113.746094 114.292969 118.308594 114.539062 122.855469 C 114.546875 123.035156 114.503906 123.230469 114.546875 123.394531 C 114.621094 123.652344 114.765625 123.886719 114.878906 124.125 C 115.082031 124.027344 115.324219 123.96875 115.472656 123.816406 C 116.390625 122.871094 117.28125 121.898438 118.183594 120.941406 C 119.144531 119.917969 120.101562 118.878906 121.078125 117.871094 C 121.507812 117.429688 122.019531 117.058594 122.480469 116.644531 C 123.40625 115.792969 124.339844 114.953125 125.234375 114.070312 C 126.800781 112.527344 128.441406 111.074219 130.15625 109.691406 C 131.390625 108.691406 132.574219 107.628906 133.800781 106.613281 C 135.054688 105.566406 136.34375 104.550781 137.613281 103.519531 C 138.617188 102.707031 139.570312 101.832031 140.617188 101.089844 C 142.949219 99.425781 145.171875 97.597656 147.675781 96.179688 C 149.527344 95.136719 151.289062 93.945312 153.15625 92.929688 C 154.714844 92.078125 156.226562 91.160156 157.832031 90.386719 C 159.5 89.574219 161.082031 88.574219 162.746094 87.753906 C 166.019531 86.132812 169.316406 84.582031 172.605469 83.011719 C 173.363281 82.648438 174.101562 82.234375 174.882812 81.925781 C 176.527344 81.273438 178.210938 80.722656 179.835938 80.039062 C 182.269531 79.007812 184.78125 78.195312 187.289062 77.375 C 188.039062 77.085938 188.824219 76.855469 189.785156 76.613281 M 98.78125 131.765625 C 99.140625 131.765625 99.609375 131.910156 99.847656 131.734375 C 100.34375 131.382812 100.609375 131.734375 100.925781 131.921875 C 101.632812 132.328125 102.226562 132.9375 103.0625 133.140625 C 103.21875 133.179688 103.386719 133.285156 103.5 133.398438 C 104.273438 134.167969 105.28125 134.480469 106.261719 134.859375 C 108.203125 135.597656 110.25 135.882812 112.289062 136.101562 C 113.578125 136.234375 114.917969 136.304688 116.210938 135.949219 C 116.585938 135.84375 116.957031 135.664062 117.339844 135.597656 C 118.730469 135.347656 119.945312 134.671875 121.117188 133.960938 C 121.984375 133.445312 122.726562 132.722656 123.546875 132.125 C 123.933594 131.847656 124.347656 131.605469 124.867188 131.570312 C 125.820312 131.5 126.769531 131.34375 127.71875 131.222656 C 128.175781 131.164062 128.644531 131.125 129.09375 131.035156 C 129.992188 130.871094 130.878906 130.652344 131.78125 130.5 C 133.007812 130.296875 134.234375 130.117188 135.46875 129.953125 C 136.90625 129.753906 138.351562 129.574219 139.789062 129.410156 C 141.007812 129.265625 142.234375 129.101562 143.464844 129.054688 C 145.058594 129.003906 146.640625 128.859375 148.226562 128.6875 C 149.078125 128.597656 149.933594 128.597656 150.792969 128.527344 C 152.546875 128.394531 154.316406 128.453125 156.085938 128.332031 C 158.996094 128.136719 161.917969 128.417969 164.835938 128.160156 C 167.464844 127.933594 170.121094 128.109375 172.769531 127.988281 C 176.585938 127.8125 180.410156 127.902344 184.230469 127.957031 C 188.027344 128.007812 191.828125 127.753906 195.625 128.113281 C 197.289062 128.273438 198.976562 128.007812 200.648438 128.28125 C 201.632812 128.4375 202.65625 128.339844 203.664062 128.453125 C 204.855469 128.589844 206.050781 128.648438 207.238281 128.835938 C 208.421875 129.027344 209.625 129.175781 210.816406 129.199219 C 212.652344 129.238281 214.480469 129.347656 216.308594 129.558594 C 217.203125 129.65625 218.109375 129.664062 218.980469 129.9375 C 219.199219 130.003906 219.402344 129.953125 219.355469 129.628906 C 219.289062 129.199219 219.191406 128.769531 219.183594 128.339844 C 219.152344 127.371094 219.152344 126.398438 219.183594 125.429688 C 219.199219 124.894531 219.078125 124.457031 218.6875 124.082031 C 218.386719 123.78125 218.417969 123.472656 218.824219 123.230469 C 219.144531 123.042969 219.167969 122.808594 219.175781 122.5 C 219.273438 118.617188 218.957031 114.71875 219.355469 110.835938 C 219.410156 110.34375 219.386719 109.863281 219.507812 109.351562 C 219.792969 108.148438 219.855469 106.890625 220.117188 105.679688 C 220.183594 105.371094 220.15625 105.273438 219.9375 105.191406 C 219.703125 105.101562 219.449219 105.039062 219.191406 105.003906 C 218.242188 104.875 217.292969 104.753906 216.339844 104.632812 C 214.804688 104.445312 213.277344 104.203125 211.742188 104.105469 C 210.453125 104.023438 209.175781 103.867188 207.886719 103.746094 C 206.40625 103.601562 204.90625 103.535156 203.417969 103.558594 C 201.105469 103.59375 198.789062 103.347656 196.484375 103.714844 C 195.484375 103.878906 194.46875 103.972656 193.453125 104.082031 C 192.292969 104.210938 191.125 104.332031 189.960938 104.453125 C 189.351562 104.511719 188.734375 104.550781 188.128906 104.648438 C 187.226562 104.800781 186.339844 105.015625 185.4375 105.175781 C 184.578125 105.324219 183.683594 105.316406 182.871094 105.574219 C 181.953125 105.867188 181.003906 105.890625 180.085938 106.078125 C 179.203125 106.257812 178.300781 106.304688 177.421875 106.460938 C 176.269531 106.671875 175.132812 106.945312 173.988281 107.183594 C 173.289062 107.328125 172.574219 107.417969 171.890625 107.621094 C 171.460938 107.75 171.113281 107.855469 170.761719 107.484375 C 170.675781 107.394531 170.480469 107.351562 170.363281 107.378906 C 169.8125 107.515625 169.277344 107.6875 168.734375 107.839844 C 167.164062 108.292969 165.589844 108.75 164.015625 109.1875 C 162.082031 109.714844 160.140625 110.226562 158.199219 110.738281 C 156.941406 111.066406 155.679688 111.390625 154.429688 111.738281 C 152.960938 112.144531 151.5 112.582031 150.039062 113.011719 C 148.820312 113.371094 147.609375 113.734375 146.398438 114.101562 C 143.996094 114.824219 141.589844 115.515625 139.195312 116.277344 C 136.570312 117.105469 133.941406 117.933594 131.347656 118.859375 C 129.207031 119.617188 127.101562 120.476562 125.015625 121.363281 C 122.707031 122.351562 120.523438 123.589844 118.378906 124.894531 C 117.746094 125.277344 117.082031 125.617188 116.503906 126.066406 C 115.855469 126.570312 114.929688 125.941406 114.382812 126.671875 C 113.871094 126.308594 113.191406 126.640625 112.660156 126.210938 C 112.085938 125.75 111.4375 125.367188 110.777344 125.050781 C 110.023438 124.691406 109.203125 124.464844 108.4375 124.117188 C 107.15625 123.546875 105.898438 122.921875 104.621094 122.335938 C 102.632812 121.425781 100.640625 120.519531 98.644531 119.632812 C 97.589844 119.167969 96.539062 118.722656 95.46875 118.300781 C 94.242188 117.820312 93 117.382812 91.765625 116.921875 C 89.898438 116.230469 88.039062 115.507812 86.167969 114.847656 C 84.367188 114.207031 82.554688 113.613281 80.730469 113.023438 C 78.804688 112.398438 76.886719 111.746094 74.929688 111.21875 C 73.101562 110.730469 71.28125 110.210938 69.433594 109.773438 C 68.894531 109.644531 68.195312 109.15625 67.652344 109.910156 C 67.605469 109.96875 67.417969 109.9375 67.304688 109.925781 C 66.671875 109.847656 66.035156 109.796875 65.410156 109.675781 C 64.089844 109.421875 62.789062 109.105469 61.480469 108.839844 C 60.691406 108.683594 59.882812 108.597656 59.085938 108.457031 C 57.84375 108.230469 56.609375 107.988281 55.375 107.742188 C 54.5625 107.582031 53.757812 107.378906 52.945312 107.246094 C 52.035156 107.085938 51.117188 106.957031 50.199219 106.839844 C 49.558594 106.753906 48.902344 106.761719 48.273438 106.644531 C 47.292969 106.445312 46.324219 106.273438 45.328125 106.289062 C 45.207031 106.289062 45.082031 106.3125 44.96875 106.289062 C 43.964844 106.0625 42.957031 105.914062 41.933594 105.929688 C 41.695312 105.929688 41.429688 105.988281 41.210938 105.921875 C 40.039062 105.535156 38.796875 105.929688 37.628906 105.566406 C 33.988281 105.679688 30.335938 105.378906 26.695312 105.730469 C 24.96875 105.898438 23.222656 105.613281 21.492188 105.914062 C 20.679688 106.054688 19.84375 105.996094 19.015625 106.0625 C 17.460938 106.191406 15.902344 106.238281 14.351562 106.460938 C 13.28125 106.621094 12.191406 106.644531 11.136719 106.847656 C 9.609375 107.148438 8.097656 107.5625 6.585938 107.921875 C 5.875 108.085938 5.863281 108.082031 5.871094 108.726562 C 5.890625 110.128906 5.882812 111.527344 6.019531 112.933594 C 6.230469 115.230469 5.890625 117.554688 6.207031 119.867188 C 6.382812 121.128906 6.253906 122.417969 6.367188 123.703125 C 6.515625 125.40625 6.523438 127.128906 6.757812 128.828125 C 6.894531 129.824219 6.921875 130.839844 6.9375 131.847656 C 6.945312 132.261719 7.089844 132.375 7.449219 132.316406 C 7.59375 132.292969 7.726562 132.253906 7.863281 132.222656 C 8.894531 132.011719 9.925781 131.773438 10.972656 131.601562 C 11.882812 131.441406 12.816406 131.382812 13.734375 131.222656 C 14.976562 131.011719 16.195312 130.703125 17.4375 130.515625 C 18.90625 130.289062 20.378906 130.132812 21.847656 129.964844 C 23.066406 129.832031 24.292969 129.65625 25.519531 129.613281 C 26.933594 129.558594 28.335938 129.402344 29.734375 129.25 C 30.734375 129.144531 31.746094 129.167969 32.753906 129.085938 C 34.90625 128.898438 37.066406 129.117188 39.234375 128.90625 C 41.679688 128.671875 44.148438 128.921875 46.617188 128.730469 C 49.882812 128.484375 53.171875 128.769531 56.460938 128.558594 C 58.664062 128.417969 60.894531 128.378906 63.121094 128.671875 C 64.566406 128.859375 66.035156 128.679688 67.507812 128.835938 C 69.089844 129.003906 70.683594 129.019531 72.273438 129.230469 C 73.296875 129.363281 74.34375 129.363281 75.382812 129.425781 C 75.5 129.433594 75.628906 129.402344 75.742188 129.433594 C 76.804688 129.664062 77.871094 129.808594 78.957031 129.792969 C 79.105469 129.792969 79.300781 129.734375 79.40625 129.800781 C 79.820312 130.078125 80.273438 129.929688 80.703125 129.972656 C 81.132812 130.027344 81.558594 130.117188 81.988281 130.148438 C 82.96875 130.222656 83.953125 130.183594 84.910156 130.367188 C 85.554688 130.484375 86.226562 130.378906 86.828125 130.554688 C 87.332031 130.695312 87.820312 130.652344 88.3125 130.703125 C 88.832031 130.757812 89.351562 130.839844 89.875 130.882812 C 90.726562 130.960938 91.59375 130.945312 92.433594 131.085938 C 93.503906 131.261719 94.582031 131.34375 95.648438 131.464844 C 96.539062 131.5625 97.417969 131.605469 98.304688 131.621094 C 98.402344 131.59375 98.5 131.703125 98.78125 131.765625 M 112.703125 71.96875 C 112.703125 71.820312 112.742188 71.652344 112.695312 71.519531 C 112.363281 70.410156 112.027344 69.3125 111.671875 68.214844 C 110.707031 65.226562 109.722656 62.238281 108.519531 59.332031 C 107.652344 57.234375 106.878906 55.097656 105.929688 53.035156 C 105.0625 51.144531 104.054688 49.316406 103.046875 47.496094 C 102 45.613281 100.820312 43.8125 99.796875 41.925781 C 98.386719 39.34375 96.695312 36.949219 95.0625 34.519531 C 94.046875 33.007812 92.894531 31.589844 91.796875 30.140625 C 90.449219 28.363281 89.109375 26.570312 87.738281 24.816406 C 86.886719 23.734375 85.984375 22.6875 85.105469 21.628906 C 84.164062 20.5 83.222656 19.375 82.273438 18.246094 C 82.140625 18.089844 81.957031 17.960938 81.832031 17.796875 C 80.664062 16.238281 79.195312 14.996094 77.675781 13.816406 C 77.359375 13.566406 77.21875 13.492188 77.210938 13.988281 C 77.210938 14.117188 77.058594 14.234375 77.042969 14.371094 C 76.832031 15.816406 76.097656 17.074219 75.5625 18.398438 C 75.179688 19.363281 74.636719 20.265625 74.117188 21.167969 C 73.160156 22.839844 72.21875 24.523438 71.167969 26.136719 C 69.472656 28.722656 67.839844 31.351562 65.9375 33.796875 C 64.875 35.167969 63.882812 36.597656 62.804688 37.957031 C 61.839844 39.179688 60.765625 40.320312 59.800781 41.542969 C 58.953125 42.625 58.136719 43.753906 57.386719 44.90625 C 56.289062 46.589844 55.285156 48.34375 54.1875 50.039062 C 52.808594 52.152344 51.546875 54.328125 50.410156 56.578125 C 49.4375 58.503906 48.550781 60.476562 47.640625 62.433594 C 47.570312 62.578125 47.601562 62.757812 47.59375 62.921875 C 47.761719 62.90625 47.925781 62.914062 48.082031 62.886719 C 48.777344 62.734375 49.476562 62.59375 50.167969 62.417969 C 50.988281 62.214844 51.824219 62.140625 52.652344 62.035156 C 53.691406 61.898438 54.730469 61.6875 55.78125 61.703125 C 56.699219 61.71875 57.613281 61.808594 58.53125 61.878906 C 59.140625 61.921875 59.757812 61.984375 60.367188 62.066406 C 60.757812 62.117188 61.15625 62.199219 61.539062 62.304688 C 62.976562 62.699219 64.429688 63.050781 65.785156 63.699219 C 67.253906 64.398438 68.757812 65.046875 70.164062 65.867188 C 71.445312 66.617188 72.671875 67.476562 73.867188 68.386719 C 75.546875 69.667969 77.234375 70.929688 78.738281 72.414062 C 80.445312 74.09375 82.15625 75.769531 83.644531 77.652344 C 84.644531 78.925781 85.753906 80.113281 86.785156 81.363281 C 87.792969 82.574219 88.753906 83.824219 89.75 85.042969 C 90.34375 85.773438 90.96875 86.472656 91.539062 87.210938 C 92.652344 88.65625 93.730469 90.121094 94.828125 91.574219 C 95.980469 93.101562 97.207031 94.578125 98.285156 96.152344 C 100.050781 98.742188 101.761719 101.375 103.417969 104.03125 C 104.644531 105.996094 105.703125 108.066406 106.929688 110.03125 C 108.316406 112.234375 109.519531 114.53125 110.714844 116.832031 C 111.507812 118.355469 112.492188 119.785156 112.914062 121.476562 C 112.9375 121.574219 113.078125 121.648438 113.164062 121.734375 C 113.191406 121.628906 113.261719 121.53125 113.261719 121.425781 C 113.171875 118.964844 113.367188 116.503906 113.117188 114.035156 C 112.898438 111.796875 113.207031 109.53125 112.914062 107.28125 C 112.769531 106.167969 112.914062 105.03125 112.757812 103.894531 C 112.546875 102.335938 112.554688 100.734375 112.546875 99.152344 C 112.523438 94.910156 112.515625 90.664062 112.546875 86.414062 C 112.574219 81.859375 112.660156 77.304688 112.726562 72.746094 C 112.710938 72.535156 112.761719 72.300781 112.703125 71.96875 M 58.460938 41.21875 C 58.546875 41.074219 58.613281 40.910156 58.71875 40.78125 C 59.996094 39.246094 61.316406 37.742188 62.5625 36.183594 C 63.414062 35.128906 64.203125 34.015625 65.011719 32.925781 C 65.6875 32 66.335938 31.042969 67.019531 30.117188 C 67.417969 29.582031 67.410156 29.445312 66.808594 29.117188 C 66.6875 29.046875 66.558594 28.988281 66.433594 28.933594 C 64.980469 28.265625 63.527344 27.601562 62.074219 26.933594 C 60.804688 26.347656 59.53125 25.757812 58.25 25.179688 C 57.613281 24.886719 57.023438 24.886719 56.445312 25.382812 C 56.0625 25.714844 55.570312 25.917969 55.15625 26.210938 C 53.960938 27.0625 52.765625 27.917969 51.597656 28.808594 C 50.574219 29.589844 49.648438 30.5 48.59375 31.230469 C 46.464844 32.707031 44.578125 34.460938 42.640625 36.152344 C 40.851562 37.71875 39.1875 39.425781 37.496094 41.089844 C 36.898438 41.667969 36.402344 42.355469 35.808594 42.933594 C 33.792969 44.921875 31.738281 46.871094 29.71875 48.863281 C 28.914062 49.660156 28.167969 50.527344 27.394531 51.355469 C 26.511719 52.296875 25.640625 53.238281 24.753906 54.179688 C 23.511719 55.488281 22.261719 56.78125 21.027344 58.089844 C 20.265625 58.898438 19.507812 59.703125 18.777344 60.53125 C 17.585938 61.878906 16.398438 63.238281 15.238281 64.617188 C 14.480469 65.511719 13.847656 66.5 13.335938 67.550781 C 12.875 68.484375 12.441406 69.425781 12.027344 70.375 C 11.761719 70.992188 11.535156 71.632812 11.339844 72.269531 C 11.296875 72.414062 11.128906 72.773438 11.582031 72.796875 C 12.824219 72.859375 14.050781 73.097656 15.269531 73.332031 C 16.488281 73.566406 17.738281 73.632812 18.949219 73.910156 C 20.199219 74.199219 21.484375 74.160156 22.734375 74.429688 C 23.105469 74.511719 23.496094 74.5 23.878906 74.519531 C 24.285156 74.542969 24.820312 74.738281 25.074219 74.550781 C 25.617188 74.160156 25.648438 74.925781 26.078125 74.835938 C 26.566406 74.738281 27.117188 74.90625 27.628906 75.003906 C 28.441406 75.160156 29.238281 75.378906 30.042969 75.523438 C 31.171875 75.734375 32.324219 75.851562 33.445312 76.101562 C 34.574219 76.34375 35.671875 76.777344 36.808594 76.96875 C 38.730469 77.277344 40.550781 77.921875 42.429688 78.359375 C 44.109375 78.75 45.757812 79.253906 47.414062 79.722656 C 49.226562 80.242188 51.054688 80.738281 52.855469 81.308594 C 55.714844 82.226562 58.574219 83.132812 61.375 84.246094 C 63.226562 84.984375 65.078125 85.703125 66.867188 86.585938 C 69.367188 87.8125 71.835938 89.097656 74.304688 90.371094 C 75.402344 90.9375 76.511719 91.492188 77.59375 92.101562 C 79.835938 93.359375 82.0625 94.632812 84.292969 95.925781 C 85.347656 96.535156 86.390625 97.167969 87.40625 97.84375 C 89.167969 99.019531 90.921875 100.222656 92.644531 101.449219 C 93.550781 102.089844 94.40625 102.796875 95.25 103.503906 C 96.230469 104.316406 97.167969 105.175781 98.125 106.011719 C 99.570312 107.273438 101.066406 108.496094 102.460938 109.820312 C 104.71875 111.972656 106.878906 114.230469 108.910156 116.601562 C 108.984375 116.691406 109.121094 116.726562 109.226562 116.789062 C 109.21875 116.644531 109.269531 116.457031 109.195312 116.367188 C 108.640625 115.703125 108.332031 114.90625 107.910156 114.167969 C 106.871094 112.347656 105.78125 110.554688 104.703125 108.765625 C 103.957031 107.523438 103.210938 106.28125 102.453125 105.0625 C 101.578125 103.664062 100.632812 102.308594 99.796875 100.886719 C 98.546875 98.753906 97.0625 96.792969 95.632812 94.789062 C 94.84375 93.691406 94.054688 92.582031 93.234375 91.507812 C 92.277344 90.257812 91.285156 89.03125 90.296875 87.8125 C 89.664062 87.039062 89.003906 86.292969 88.371094 85.515625 C 87.460938 84.378906 86.578125 83.222656 85.660156 82.09375 C 85.015625 81.292969 84.335938 80.519531 83.667969 79.730469 C 82.621094 78.496094 81.605469 77.230469 80.507812 76.042969 C 79.355469 74.800781 78.113281 73.632812 76.917969 72.429688 C 76.765625 72.277344 76.628906 72.113281 76.464844 71.984375 C 75.222656 71.035156 73.996094 70.058594 72.714844 69.164062 C 71.292969 68.160156 69.871094 67.136719 68.351562 66.300781 C 66.90625 65.503906 65.355469 64.886719 63.820312 64.292969 C 62.933594 63.945312 61.976562 63.75 61.035156 63.554688 C 59.9375 63.328125 58.824219 63.066406 57.71875 63.027344 C 56.136719 62.976562 54.546875 63.074219 52.976562 63.203125 C 52.042969 63.277344 51.117188 63.523438 50.199219 63.734375 C 49.257812 63.953125 48.339844 64.226562 47.40625 64.449219 C 47.015625 64.550781 46.609375 64.601562 46.210938 64.632812 C 45.886719 64.652344 45.71875 64.449219 45.75 64.128906 C 45.765625 63.933594 45.78125 63.714844 45.855469 63.53125 C 46.636719 61.703125 47.414062 59.875 48.242188 58.0625 C 48.632812 57.1875 49.121094 56.359375 49.574219 55.515625 C 50.304688 54.148438 51.003906 52.761719 51.785156 51.429688 C 52.449219 50.300781 53.269531 49.261719 53.929688 48.125 C 55.277344 45.757812 56.785156 43.503906 58.460938 41.21875 M 111.339844 123.207031 C 111.777344 123.433594 112.222656 123.667969 112.660156 123.894531 C 112.433594 123.394531 112.289062 122.832031 111.964844 122.402344 C 110.753906 120.769531 109.519531 119.152344 108.242188 117.578125 C 107.503906 116.675781 106.691406 115.832031 105.863281 115.011719 C 103.589844 112.761719 101.285156 110.542969 98.992188 108.320312 C 98.480469 107.824219 97.945312 107.359375 97.394531 106.90625 C 96.128906 105.867188 94.867188 104.828125 93.578125 103.820312 C 92.441406 102.925781 91.304688 102.023438 90.109375 101.203125 C 88.492188 100.078125 86.84375 98.996094 85.171875 97.972656 C 83.191406 96.761719 81.175781 95.617188 79.167969 94.464844 C 78.261719 93.945312 77.324219 93.503906 76.40625 93.003906 C 74.296875 91.863281 72.21875 90.65625 70.097656 89.558594 C 68.230469 88.59375 66.320312 87.707031 64.398438 86.839844 C 62.917969 86.179688 61.414062 85.554688 59.882812 85.003906 C 57.769531 84.246094 55.632812 83.550781 53.503906 82.84375 C 52.140625 82.394531 50.777344 81.933594 49.402344 81.542969 C 47.714844 81.0625 46.007812 80.65625 44.3125 80.203125 C 43.027344 79.863281 41.753906 79.503906 40.46875 79.171875 C 38.902344 78.773438 37.328125 78.382812 35.753906 78.019531 C 34.175781 77.660156 32.585938 77.328125 31 76.980469 C 30.195312 76.808594 29.386719 76.621094 28.566406 76.476562 C 27.65625 76.320312 26.738281 76.207031 25.820312 76.070312 C 25.445312 76.019531 25.128906 76.117188 24.878906 76.441406 C 24.558594 76.863281 24.226562 77.277344 23.847656 77.652344 C 22.164062 79.351562 20.460938 81.046875 18.769531 82.738281 C 18.597656 82.914062 18.421875 83.078125 18.257812 83.257812 C 17.632812 83.9375 17.039062 84.652344 16.382812 85.296875 C 15.425781 86.246094 14.417969 87.148438 13.449219 88.074219 C 13.378906 88.136719 13.371094 88.277344 13.371094 88.382812 C 13.371094 88.40625 13.523438 88.4375 13.605469 88.453125 C 14.433594 88.574219 15.277344 88.648438 16.089844 88.828125 C 17.308594 89.089844 18.503906 89.460938 19.71875 89.714844 C 21.589844 90.117188 23.480469 90.429688 25.363281 90.824219 C 26.980469 91.160156 28.582031 91.53125 30.1875 91.914062 C 31.480469 92.222656 32.773438 92.546875 34.0625 92.890625 C 35.753906 93.34375 37.441406 93.816406 39.128906 94.277344 C 40.789062 94.738281 42.453125 95.1875 44.109375 95.65625 C 45.222656 95.96875 46.324219 96.316406 47.429688 96.640625 C 49.054688 97.105469 50.695312 97.542969 52.3125 98.039062 C 53.628906 98.445312 54.917969 98.9375 56.21875 99.371094 C 58.566406 100.15625 60.914062 100.90625 63.265625 101.707031 C 64.828125 102.238281 66.363281 102.863281 67.945312 103.367188 C 70.40625 104.160156 72.769531 105.191406 75.171875 106.144531 C 76.292969 106.589844 77.382812 107.109375 78.496094 107.5625 C 80.445312 108.34375 82.417969 109.082031 84.359375 109.878906 C 86.066406 110.578125 87.761719 111.324219 89.460938 112.0625 C 91.601562 112.988281 93.738281 113.90625 95.859375 114.855469 C 96.859375 115.296875 97.792969 115.921875 98.816406 116.285156 C 100.585938 116.902344 102.144531 117.925781 103.792969 118.773438 C 105.472656 119.640625 107.089844 120.632812 108.722656 121.589844 C 109.558594 122.070312 110.402344 122.597656 111.339844 123.207031 M 136.546875 111.835938 C 135.386719 112.625 134.222656 113.410156 133.078125 114.222656 C 131.78125 115.140625 130.511719 116.089844 129.230469 117.019531 C 128.253906 117.738281 127.273438 118.453125 126.304688 119.175781 C 126.226562 119.234375 126.214844 119.378906 126.167969 119.476562 C 126.25 119.453125 126.339844 119.429688 126.421875 119.398438 C 128.652344 118.550781 130.855469 117.644531 133.097656 116.847656 C 134.980469 116.179688 136.890625 115.613281 138.804688 115.019531 C 140.980469 114.34375 143.160156 113.679688 145.34375 113.015625 C 146.527344 112.65625 147.707031 112.265625 148.898438 111.933594 C 150.582031 111.46875 152.292969 111.0625 153.984375 110.59375 C 155.585938 110.148438 157.175781 109.644531 158.777344 109.203125 C 161.066406 108.578125 163.371094 107.988281 165.664062 107.371094 C 167.003906 107.019531 168.335938 106.644531 169.667969 106.28125 C 171.03125 105.914062 172.394531 105.527344 173.769531 105.199219 C 174.90625 104.917969 176.074219 104.777344 177.195312 104.445312 C 179.191406 103.867188 181.222656 103.472656 183.238281 103 C 184.683594 102.660156 186.144531 102.40625 187.589844 102.066406 C 189.09375 101.714844 190.621094 101.511719 192.132812 101.203125 C 193.015625 101.019531 193.917969 100.976562 194.800781 100.816406 C 196.039062 100.597656 197.261719 100.3125 198.5 100.101562 C 199.789062 99.882812 201.074219 99.71875 202.371094 99.554688 C 203.46875 99.410156 204.574219 99.28125 205.675781 99.191406 C 206.855469 99.101562 208.050781 98.996094 209.234375 99.019531 C 211.425781 99.0625 213.613281 98.851562 215.804688 99.160156 C 216.875 99.3125 217.988281 99.191406 219.078125 99.183594 C 219.160156 99.183594 219.242188 99.152344 219.328125 99.132812 C 219.265625 99.050781 219.214844 98.949219 219.144531 98.875 C 218.832031 98.550781 218.460938 98.265625 218.191406 97.90625 C 217.078125 96.398438 215.78125 95.066406 214.335938 93.878906 C 213.976562 93.585938 213.613281 93.285156 213.246094 92.996094 C 212.46875 92.386719 211.679688 91.792969 210.914062 91.167969 C 210.589844 90.90625 210.347656 90.527344 210.003906 90.3125 C 209.835938 90.207031 209.527344 89.8125 209.265625 90.265625 C 208.566406 90.265625 207.828125 90.117188 207.179688 90.304688 C 206.195312 90.582031 205.207031 90.363281 204.222656 90.597656 C 203.226562 90.832031 202.144531 90.671875 201.128906 90.84375 C 200.480469 90.957031 199.839844 90.9375 199.203125 91.003906 C 197.90625 91.152344 196.628906 91.378906 195.332031 91.53125 C 194.054688 91.679688 192.765625 91.777344 191.480469 91.898438 C 190.929688 91.953125 190.375 91.996094 189.824219 92.085938 C 188.777344 92.253906 187.730469 92.457031 186.6875 92.621094 C 185.796875 92.765625 184.902344 92.832031 184.023438 92.996094 C 182.898438 93.207031 181.792969 93.472656 180.679688 93.71875 C 179.679688 93.9375 178.671875 94.132812 177.675781 94.382812 C 176.441406 94.683594 175.214844 95.023438 173.988281 95.359375 C 172.113281 95.878906 170.226562 96.363281 168.375 96.957031 C 164.175781 98.296875 159.996094 99.671875 155.902344 101.328125 C 153.847656 102.164062 151.792969 102.992188 149.800781 103.933594 C 147.460938 105.039062 145.210938 106.320312 142.929688 107.554688 C 142.054688 108.027344 141.207031 108.546875 140.386719 109.105469 C 139.113281 109.960938 137.878906 110.863281 136.546875 111.835938 M 16.148438 100.824219 C 17.007812 100.886719 17.859375 100.945312 18.714844 101.003906 C 19.632812 101.074219 20.546875 101.042969 21.464844 101.140625 C 22.953125 101.300781 24.453125 101.382812 25.949219 101.523438 C 27.054688 101.628906 28.152344 101.742188 29.253906 101.902344 C 30.472656 102.074219 31.699219 102.15625 32.925781 102.277344 C 33.503906 102.335938 34.09375 102.375 34.671875 102.464844 C 35.777344 102.632812 36.882812 102.851562 38 103 C 38.730469 103.097656 39.488281 103.046875 40.1875 103.21875 C 40.722656 103.347656 41.257812 103.257812 41.753906 103.390625 C 42.964844 103.722656 44.230469 103.648438 45.449219 103.902344 C 46.164062 104.054688 46.917969 104.03125 47.648438 104.105469 C 48.136719 104.160156 48.625 104.21875 49.113281 104.300781 C 50.109375 104.46875 51.09375 104.664062 52.078125 104.828125 C 52.90625 104.964844 53.742188 105.054688 54.5625 105.207031 C 55.683594 105.417969 56.792969 105.679688 57.90625 105.921875 C 58.65625 106.085938 59.402344 106.257812 60.15625 106.417969 C 61.351562 106.679688 62.550781 106.945312 63.746094 107.183594 C 64.753906 107.386719 65.785156 107.523438 66.777344 107.777344 C 69 108.34375 71.203125 108.953125 73.410156 109.5625 C 75.480469 110.136719 77.542969 110.707031 79.597656 111.316406 C 80.996094 111.730469 82.386719 112.195312 83.773438 112.65625 C 85.746094 113.3125 87.722656 113.949219 89.671875 114.664062 C 91.359375 115.28125 92.984375 116.066406 94.679688 116.636719 C 96.996094 117.429688 99.179688 118.519531 101.414062 119.496094 C 102.804688 120.105469 104.125 120.859375 105.484375 121.539062 C 105.734375 121.65625 106.027344 121.695312 106.304688 121.746094 C 106.359375 121.753906 106.433594 121.679688 106.5 121.648438 C 106.449219 121.628906 106.394531 121.605469 106.351562 121.574219 C 105.757812 121.257812 105.164062 120.933594 104.558594 120.617188 C 102.769531 119.671875 100.984375 118.714844 99.179688 117.796875 C 98.027344 117.210938 96.882812 116.609375 95.679688 116.132812 C 93.617188 115.320312 91.636719 114.328125 89.589844 113.46875 C 88.144531 112.867188 86.730469 112.167969 85.277344 111.574219 C 83.515625 110.851562 81.726562 110.195312 79.957031 109.480469 C 78.886719 109.050781 77.851562 108.5625 76.78125 108.140625 C 74.515625 107.246094 72.242188 106.363281 69.953125 105.5 C 68.011719 104.769531 66.0625 104.054688 64.097656 103.375 C 60.570312 102.15625 57.03125 100.953125 53.488281 99.777344 C 51.695312 99.183594 49.890625 98.640625 48.082031 98.101562 C 46.601562 97.65625 45.101562 97.25 43.605469 96.820312 C 42.117188 96.398438 40.625 95.949219 39.128906 95.558594 C 37.59375 95.15625 36.027344 94.863281 34.5 94.421875 C 32.066406 93.71875 29.628906 93.082031 27.144531 92.628906 C 25.46875 92.320312 23.804688 91.921875 22.132812 91.546875 C 20.613281 91.199219 19.101562 90.808594 17.578125 90.46875 C 17.332031 90.417969 16.917969 90.460938 16.796875 90.628906 C 15.789062 91.929688 14.855469 93.277344 13.863281 94.585938 C 12.847656 95.933594 11.785156 97.25 10.746094 98.574219 C 10.386719 99.035156 10 99.46875 9.683594 99.960938 C 9.488281 100.261719 8.878906 100.515625 9.171875 100.871094 C 9.355469 101.097656 9.972656 101.011719 10.386719 101 C 12.25 100.953125 14.109375 100.886719 16.148438 100.824219 M 37.441406 132.855469 C 37.539062 132.796875 37.628906 132.691406 37.726562 132.683594 C 39.195312 132.554688 40.65625 132.421875 42.121094 132.320312 C 43.042969 132.261719 43.953125 132.335938 44.871094 132.15625 C 45.734375 131.992188 46.632812 132.132812 47.527344 131.984375 C 48.542969 131.816406 49.597656 131.945312 50.636719 131.789062 C 51.660156 131.628906 52.695312 131.796875 53.742188 131.613281 C 54.851562 131.425781 55.992188 131.605469 57.121094 131.425781 C 58.230469 131.246094 59.371094 131.375 60.5 131.261719 C 62.226562 131.085938 63.964844 131.125 65.703125 131.074219 C 69.335938 130.960938 72.980469 131.042969 76.621094 131.035156 C 76.871094 131.035156 77.121094 130.96875 77.375 130.9375 C 77.105469 130.847656 76.839844 130.757812 76.570312 130.679688 C 76.457031 130.652344 76.328125 130.679688 76.207031 130.675781 C 75.472656 130.628906 74.742188 130.605469 74.003906 130.539062 C 72.484375 130.394531 70.949219 130.3125 69.429688 130.140625 C 68.636719 130.050781 67.839844 130.078125 67.042969 129.988281 C 65.65625 129.832031 64.242188 129.816406 62.84375 129.808594 C 59.621094 129.785156 56.40625 129.664062 53.179688 129.921875 C 50.125 130.164062 47.046875 129.832031 43.972656 130.109375 C 41.5 130.335938 39 130.09375 36.5 130.273438 C 33.890625 130.457031 31.253906 130.335938 28.644531 130.675781 C 27.558594 130.816406 26.453125 130.808594 25.355469 130.871094 C 25.292969 130.871094 25.234375 130.863281 25.175781 130.871094 C 24.316406 130.988281 23.457031 131.132812 22.59375 131.222656 C 21.800781 131.3125 21.003906 131.34375 20.214844 131.410156 C 19.664062 131.457031 19.109375 131.507812 18.558594 131.59375 C 17.480469 131.757812 16.40625 131.953125 15.328125 132.132812 C 14.5 132.269531 13.675781 132.367188 12.847656 132.519531 C 12.003906 132.667969 11.175781 132.871094 10.332031 133.042969 C 9.488281 133.21875 8.640625 133.339844 7.8125 133.550781 C 6.457031 133.894531 5.671875 133.324219 5.664062 131.921875 C 5.664062 131.441406 5.671875 130.953125 5.660156 130.472656 C 5.652344 130.359375 5.554688 130.246094 5.492188 130.140625 C 5.417969 130.238281 5.335938 130.335938 5.273438 130.449219 C 5.035156 130.890625 4.808594 131.34375 4.574219 131.796875 C 3.753906 133.367188 2.941406 134.941406 2.113281 136.507812 C 1.933594 136.851562 2.015625 137.085938 2.398438 137.046875 C 3.265625 136.957031 4.117188 136.808594 4.980469 136.695312 C 6.050781 136.558594 7.125 136.484375 8.195312 136.320312 C 9.585938 136.109375 10.964844 135.808594 12.355469 135.609375 C 13.515625 135.445312 14.683594 135.363281 15.839844 135.234375 C 16.390625 135.175781 16.960938 135.183594 17.488281 135.039062 C 18.339844 134.796875 19.214844 134.835938 20.078125 134.707031 C 20.890625 134.578125 21.726562 134.601562 22.546875 134.503906 C 23.839844 134.347656 25.121094 134.128906 26.414062 133.96875 C 27.265625 133.871094 28.125 133.84375 28.972656 133.78125 C 29.066406 133.773438 29.164062 133.796875 29.238281 133.765625 C 29.953125 133.488281 30.71875 133.542969 31.457031 133.429688 C 32.242188 133.316406 33.054688 133.359375 33.835938 133.21875 C 34.988281 133 36.117188 132.839844 37.441406 132.855469 M 13.96875 105.191406 C 15.089844 104.964844 16.242188 105.085938 17.371094 104.851562 C 18.226562 104.671875 19.121094 104.851562 20.027344 104.679688 C 21.09375 104.476562 22.207031 104.503906 23.308594 104.46875 C 26.097656 104.363281 28.890625 104.609375 31.691406 104.308594 C 33.160156 104.152344 34.65625 104.265625 36.148438 104.289062 C 37.003906 104.300781 37.855469 104.40625 38.707031 104.453125 C 38.796875 104.460938 38.886719 104.386719 38.976562 104.347656 C 38.894531 104.324219 38.820312 104.292969 38.730469 104.28125 C 37.902344 104.160156 37.074219 103.972656 36.246094 103.933594 C 35.160156 103.878906 34.101562 103.738281 33.03125 103.566406 C 31.660156 103.347656 30.277344 103.179688 28.890625 103.015625 C 27.703125 102.871094 26.511719 102.714844 25.316406 102.660156 C 23.933594 102.601562 22.570312 102.441406 21.191406 102.300781 C 19.949219 102.164062 18.703125 102.128906 17.453125 102.113281 C 15.261719 102.089844 13.078125 102.128906 10.890625 102.238281 C 9.828125 102.300781 9.015625 102.421875 8.457031 103.414062 C 7.871094 104.453125 7.1875 105.429688 6.546875 106.441406 C 6.515625 106.492188 6.507812 106.566406 6.492188 106.628906 C 6.554688 106.636719 6.628906 106.664062 6.667969 106.644531 C 7.496094 106.136719 8.472656 106.160156 9.375 105.949219 C 10.8125 105.597656 12.304688 105.429688 13.96875 105.191406 M 201.609375 102.277344 C 203.558594 102.335938 205.5 102.398438 207.449219 102.457031 C 207.539062 102.457031 207.640625 102.4375 207.722656 102.457031 C 208.746094 102.757812 209.804688 102.667969 210.84375 102.8125 C 211.664062 102.917969 212.492188 102.910156 213.3125 103.015625 C 214.488281 103.164062 215.648438 103.429688 216.820312 103.535156 C 217.746094 103.617188 218.671875 103.683594 219.582031 103.910156 C 219.679688 103.933594 219.792969 103.859375 219.90625 103.828125 C 219.859375 103.722656 219.839844 103.601562 219.769531 103.519531 C 219.613281 103.339844 219.402344 103.195312 219.265625 103 C 218.738281 102.253906 218.242188 101.488281 217.707031 100.734375 C 217.617188 100.605469 217.429688 100.488281 217.28125 100.472656 C 216.519531 100.386719 215.75 100.28125 214.992188 100.289062 C 212.140625 100.320312 209.28125 100.148438 206.425781 100.457031 C 205.546875 100.554688 204.644531 100.5 203.777344 100.675781 C 203.25 100.78125 202.730469 100.765625 202.210938 100.832031 C 201.160156 100.984375 200.121094 101.203125 199.074219 101.367188 C 198.125 101.511719 197.167969 101.59375 196.222656 101.742188 C 195.175781 101.902344 194.128906 102.113281 193.082031 102.277344 C 192.59375 102.359375 192.082031 102.332031 191.617188 102.472656 C 190.132812 102.933594 188.574219 102.984375 187.078125 103.367188 C 186.382812 103.542969 185.675781 103.65625 184.984375 103.8125 C 184.847656 103.84375 184.738281 103.933594 184.609375 104 C 184.738281 104.039062 184.871094 104.105469 184.992188 104.097656 C 185.421875 104.054688 185.867188 104.03125 186.28125 103.910156 C 187.28125 103.625 188.296875 103.453125 189.328125 103.367188 C 189.90625 103.324219 190.488281 103.257812 191.066406 103.171875 C 191.75 103.074219 192.421875 102.925781 193.105469 102.835938 C 193.777344 102.746094 194.453125 102.75 195.121094 102.640625 C 196.3125 102.4375 197.5 102.300781 198.707031 102.285156 C 199.617188 102.269531 200.519531 102.277344 201.609375 102.277344 M 208.164062 130.125 C 207.554688 130.0625 206.945312 129.996094 206.328125 129.945312 C 205.480469 129.875 204.589844 129.9375 203.769531 129.734375 C 202.550781 129.425781 201.308594 129.558594 200.089844 129.445312 C 197.582031 129.214844 195.046875 129.273438 192.527344 129.214844 C 192.40625 129.214844 192.238281 129.265625 192.171875 129.207031 C 191.707031 128.835938 191.179688 129.125 190.691406 129.039062 C 190.605469 129.027344 190.507812 129.132812 190.417969 129.175781 C 190.515625 129.25 190.605469 129.378906 190.703125 129.386719 C 191.53125 129.425781 192.359375 129.5 193.179688 129.539062 C 195.078125 129.628906 196.964844 129.71875 198.855469 129.914062 C 200.015625 130.035156 201.179688 130.109375 202.339844 130.289062 C 203.492188 130.472656 204.664062 130.546875 205.824219 130.667969 C 206.34375 130.71875 206.871094 130.765625 207.390625 130.855469 C 208.347656 131.019531 209.292969 131.246094 210.257812 131.390625 C 211.386719 131.546875 212.539062 131.570312 213.652344 131.796875 C 214.179688 131.902344 214.714844 131.847656 215.21875 131.960938 C 216.527344 132.246094 217.859375 132.335938 219.183594 132.488281 C 219.394531 132.511719 219.613281 132.457031 219.816406 132.503906 C 220.90625 132.734375 222.007812 132.871094 223.128906 132.855469 C 223.5625 132.847656 223.242188 132.683594 223.179688 132.570312 C 222.917969 132.074219 222.636719 131.585938 222.40625 131.074219 C 221.855469 129.875 221.027344 128.808594 220.78125 127.46875 C 220.765625 127.378906 220.613281 127.308594 220.53125 127.226562 C 220.5 127.308594 220.457031 127.386719 220.457031 127.46875 C 220.449219 127.679688 220.441406 127.898438 220.457031 128.109375 C 220.507812 128.808594 220.589844 129.515625 220.628906 130.214844 C 220.652344 130.582031 220.214844 131.207031 219.90625 131.214844 C 219.003906 131.230469 218.015625 131.410156 217.21875 131.109375 C 216.007812 130.652344 214.773438 130.726562 213.554688 130.523438 C 212.507812 130.351562 211.425781 130.574219 210.355469 130.328125 C 209.707031 130.175781 209.023438 130.183594 208.164062 130.125 M 141.371094 130.855469 C 141.589844 130.792969 141.800781 130.703125 142.027344 130.679688 C 142.753906 130.605469 143.484375 130.539062 144.222656 130.5 C 145.082031 130.457031 145.925781 130.472656 146.789062 130.351562 C 147.820312 130.207031 148.882812 130.328125 149.921875 130.15625 C 150.476562 130.0625 151.070312 130.191406 151.644531 130.125 C 152.140625 130.0625 152.652344 130.027344 153.148438 129.988281 C 155.0625 129.855469 156.972656 129.832031 158.882812 129.777344 C 159.335938 129.761719 159.792969 129.777344 160.246094 129.769531 C 160.300781 129.769531 160.382812 129.65625 160.382812 129.597656 C 160.382812 129.539062 160.304688 129.433594 160.246094 129.425781 C 160.066406 129.402344 159.886719 129.410156 159.703125 129.417969 C 158.125 129.476562 156.542969 129.53125 154.964844 129.605469 C 153.804688 129.65625 152.652344 129.546875 151.484375 129.75 C 150.476562 129.929688 149.417969 129.75 148.386719 129.953125 C 147.699219 130.085938 146.976562 130.058594 146.277344 130.101562 C 144.597656 130.214844 142.921875 130.3125 141.25 130.507812 C 140 130.652344 138.742188 130.75 137.496094 130.882812 C 137.410156 130.890625 137.34375 131.003906 137.269531 131.074219 C 137.351562 131.132812 137.449219 131.246094 137.515625 131.230469 C 138.730469 130.96875 139.957031 130.847656 141.371094 130.855469 Z M 141.371094 130.855469 " fill-opacity="1" fill-rule="nonzero"/></g><path fill="#b7ad98" d="M 125.078125 124.480469 C 127.078125 123.808594 128.984375 123.140625 130.894531 122.476562 C 132.59375 121.890625 134.289062 121.273438 136.003906 120.761719 C 137.714844 120.25 139.445312 119.835938 141.167969 119.382812 C 142.972656 118.910156 144.78125 118.429688 146.59375 117.984375 C 147.78125 117.691406 148.988281 117.480469 150.183594 117.195312 C 151.984375 116.765625 153.796875 116.433594 155.582031 115.945312 C 156.875 115.589844 158.230469 115.457031 159.546875 115.191406 C 160.910156 114.914062 162.261719 114.566406 163.632812 114.296875 C 164.730469 114.078125 165.847656 113.9375 166.953125 113.738281 C 168.214844 113.515625 169.480469 113.234375 170.746094 113.023438 C 171.664062 112.867188 172.589844 112.800781 173.507812 112.648438 C 174.472656 112.492188 175.417969 112.273438 176.375 112.113281 C 176.953125 112.015625 177.542969 112.015625 178.121094 111.917969 C 179.289062 111.714844 180.476562 111.707031 181.636719 111.398438 C 182.191406 111.25 182.789062 111.382812 183.382812 111.234375 C 184.113281 111.046875 184.902344 111.089844 185.664062 111.015625 C 186.0625 110.976562 186.460938 110.902344 186.859375 110.835938 C 187.226562 110.773438 187.640625 111.007812 187.972656 110.660156 C 188.003906 110.632812 188.09375 110.660156 188.152344 110.652344 C 189.101562 110.59375 190.066406 110.625 190.984375 110.445312 C 191.871094 110.277344 192.796875 110.449219 193.664062 110.105469 C 193.714844 110.082031 193.78125 110.105469 193.84375 110.105469 C 194.972656 110.042969 196.101562 109.992188 197.222656 109.917969 C 197.742188 109.878906 198.261719 109.796875 198.789062 109.742188 C 199.277344 109.691406 199.796875 109.871094 200.261719 109.5625 C 200.308594 109.53125 200.382812 109.5625 200.445312 109.554688 C 201.601562 109.496094 202.761719 109.464844 203.914062 109.367188 C 204.6875 109.300781 205.449219 109.132812 206.222656 109.011719 C 206.375 108.992188 206.546875 108.960938 206.675781 109.019531 C 206.863281 109.113281 207.007812 109.269531 207.171875 109.40625 C 207.023438 109.519531 206.871094 109.707031 206.707031 109.730469 C 205.976562 109.820312 205.238281 109.832031 204.507812 109.933594 C 203.019531 110.128906 201.519531 110.210938 200.023438 110.316406 C 198.613281 110.414062 197.214844 110.578125 195.808594 110.675781 C 194.398438 110.773438 193 110.941406 191.59375 111.046875 C 190.464844 111.128906 189.320312 111.265625 188.199219 111.414062 C 186.882812 111.585938 185.542969 111.609375 184.230469 111.910156 C 183.554688 112.070312 182.824219 112.023438 182.125 112.113281 C 181.378906 112.210938 180.648438 112.363281 179.90625 112.46875 C 179.355469 112.550781 178.796875 112.574219 178.25 112.65625 C 177.113281 112.828125 175.960938 112.917969 174.832031 113.183594 C 173.898438 113.394531 172.929688 113.417969 171.988281 113.574219 C 170.777344 113.777344 169.570312 114.035156 168.359375 114.25 C 167.878906 114.34375 167.386719 114.386719 166.90625 114.476562 C 165.753906 114.695312 164.605469 114.929688 163.453125 115.15625 C 162.722656 115.296875 161.984375 115.417969 161.261719 115.570312 C 159.921875 115.847656 158.589844 116.15625 157.25 116.433594 C 156.242188 116.644531 155.226562 116.816406 154.21875 117.019531 C 153.351562 117.195312 152.488281 117.375 151.621094 117.570312 C 150.597656 117.804688 149.574219 118.046875 148.558594 118.300781 C 146.414062 118.835938 144.285156 119.429688 142.125 119.902344 C 140.210938 120.316406 138.328125 120.835938 136.464844 121.410156 C 133.671875 122.265625 130.878906 123.148438 128.132812 124.148438 C 126.289062 124.820312 124.4375 125.488281 122.585938 126.136719 C 121.53125 126.503906 120.5 126.957031 119.476562 127.40625 C 119.039062 127.601562 118.65625 127.910156 118.234375 128.144531 C 118.113281 128.210938 117.925781 128.242188 117.804688 128.199219 C 117.460938 128.054688 117.792969 127.769531 117.828125 127.738281 C 118.121094 127.476562 118.429688 127.203125 118.785156 127.046875 C 120.222656 126.414062 121.675781 125.820312 123.121094 125.21875 C 123.730469 124.953125 124.363281 124.726562 125.078125 124.480469 Z M 125.078125 124.480469 " fill-opacity="1" fill-rule="nonzero"/><path fill="#b7ad98" d="M 52.824219 121.753906 C 56.070312 121.753906 59.222656 121.734375 62.375 121.761719 C 63.925781 121.777344 65.492188 121.777344 67.027344 121.972656 C 67.953125 122.09375 68.863281 122.054688 69.773438 122.117188 C 71.421875 122.230469 73.070312 122.34375 74.71875 122.484375 C 75.945312 122.589844 77.171875 122.695312 78.390625 122.855469 C 79.609375 123.011719 80.828125 123.179688 82.0625 123.222656 C 83.050781 123.269531 84.027344 123.433594 85.007812 123.578125 C 86.171875 123.742188 87.339844 123.953125 88.515625 124.109375 C 89.214844 124.207031 89.921875 124.214844 90.621094 124.308594 C 91.277344 124.390625 91.921875 124.515625 92.570312 124.644531 C 93.023438 124.734375 93.480469 124.699219 93.949219 124.8125 C 94.957031 125.050781 96.03125 125.035156 97.0625 125.226562 C 98.757812 125.535156 100.488281 125.617188 102.152344 126.121094 C 102.257812 126.152344 102.421875 126.121094 102.484375 126.1875 C 102.582031 126.300781 102.6875 126.511719 102.640625 126.609375 C 102.589844 126.722656 102.355469 126.828125 102.226562 126.8125 C 101.203125 126.664062 100.1875 126.480469 99.164062 126.308594 C 97.777344 126.066406 96.394531 125.796875 95.007812 125.585938 C 93.910156 125.421875 92.804688 125.359375 91.707031 125.210938 C 90.589844 125.058594 89.492188 124.839844 88.378906 124.675781 C 87.828125 124.59375 87.28125 124.546875 86.722656 124.488281 C 85.4375 124.359375 84.148438 124.285156 82.871094 124.109375 C 81.679688 123.953125 80.484375 123.839844 79.292969 123.734375 C 78.164062 123.628906 77.035156 123.472656 75.898438 123.375 C 74.3125 123.238281 72.722656 123.132812 71.144531 122.980469 C 70.347656 122.90625 69.539062 122.960938 68.757812 122.832031 C 67.449219 122.621094 66.125 122.808594 64.835938 122.621094 C 63.671875 122.457031 62.519531 122.507812 61.359375 122.484375 C 57.65625 122.402344 53.9375 122.175781 50.25 122.34375 C 46.390625 122.523438 42.527344 122.265625 38.683594 122.515625 C 36.644531 122.644531 34.597656 122.46875 32.570312 122.695312 C 31.105469 122.863281 29.628906 122.671875 28.191406 122.871094 C 27.085938 123.019531 25.980469 122.882812 24.902344 123.050781 C 23.953125 123.191406 22.992188 123.078125 22.066406 123.238281 C 21.328125 123.367188 20.582031 123.277344 19.867188 123.402344 C 18.492188 123.644531 17.089844 123.589844 15.722656 123.90625 C 14.953125 124.082031 14.140625 124.042969 13.34375 124.109375 C 13.058594 124.132812 12.824219 124.003906 12.832031 123.757812 C 12.839844 123.621094 13.132812 123.410156 13.3125 123.394531 C 14.191406 123.296875 15.082031 123.289062 15.960938 123.191406 C 17.285156 123.042969 18.605469 122.839844 19.921875 122.660156 C 19.949219 122.652344 19.980469 122.660156 20.011719 122.660156 C 21.109375 122.597656 22.199219 122.523438 23.300781 122.476562 C 24.941406 122.410156 26.605469 122.476562 28.222656 122.257812 C 29.691406 122.054688 31.164062 122.289062 32.609375 122.09375 C 34.921875 121.785156 37.238281 122.101562 39.542969 121.914062 C 43.929688 121.558594 48.332031 121.867188 52.824219 121.753906 Z M 52.824219 121.753906 " fill-opacity="1" fill-rule="nonzero"/><path fill="#b7ad98" d="M 63.558594 117.382812 C 62.121094 117.261719 60.773438 117.1875 59.433594 117.007812 C 58.214844 116.839844 56.972656 116.804688 55.769531 116.609375 C 54.722656 116.433594 53.644531 116.710938 52.636719 116.300781 C 52.585938 116.277344 52.515625 116.300781 52.457031 116.300781 C 51.085938 116.238281 49.710938 116.253906 48.347656 116.09375 C 47.21875 115.960938 46.066406 116.082031 44.96875 115.898438 C 43.921875 115.726562 42.875 115.898438 41.851562 115.742188 C 40.363281 115.507812 38.847656 115.742188 37.382812 115.539062 C 35.792969 115.320312 34.210938 115.457031 32.632812 115.394531 C 30.382812 115.3125 28.132812 115.148438 25.890625 115.246094 C 23.488281 115.34375 21.085938 115.34375 18.6875 115.410156 C 17.25 115.449219 15.8125 115.628906 14.382812 115.765625 C 14.074219 115.792969 13.765625 115.898438 13.457031 115.929688 C 13.359375 115.9375 13.183594 115.824219 13.167969 115.742188 C 13.148438 115.644531 13.238281 115.484375 13.320312 115.402344 C 13.417969 115.3125 13.5625 115.238281 13.695312 115.222656 C 14.335938 115.148438 14.976562 115.078125 15.625 115.035156 C 16.753906 114.960938 17.894531 115.019531 19.003906 114.816406 C 20.109375 114.613281 21.199219 114.679688 22.300781 114.671875 C 26.394531 114.652344 30.488281 114.589844 34.582031 114.695312 C 36.402344 114.742188 38.238281 114.710938 40.054688 114.882812 C 41.25 115.003906 42.445312 114.863281 43.621094 115.050781 C 44.695312 115.222656 45.773438 115.066406 46.820312 115.238281 C 47.714844 115.378906 48.59375 115.304688 49.476562 115.394531 C 51.152344 115.578125 52.832031 115.675781 54.511719 115.78125 C 55.828125 115.863281 57.128906 116.074219 58.453125 116.132812 C 59.773438 116.1875 61.089844 116.3125 62.398438 116.496094 C 63.496094 116.644531 64.609375 116.726562 65.703125 116.878906 C 66.988281 117.058594 68.304688 117.050781 69.578125 117.375 C 70.195312 117.53125 70.859375 117.511719 71.496094 117.570312 C 72.304688 117.644531 73.101562 117.730469 73.898438 117.917969 C 74.402344 118.039062 74.929688 117.976562 75.464844 118.089844 C 76.515625 118.316406 77.609375 118.332031 78.671875 118.496094 C 80.003906 118.699219 81.320312 118.992188 82.644531 119.210938 C 83.59375 119.371094 84.546875 119.429688 85.496094 119.585938 C 86.707031 119.792969 87.914062 120.054688 89.117188 120.28125 C 89.566406 120.363281 90.027344 120.40625 90.484375 120.492188 C 91.441406 120.664062 92.398438 120.867188 93.355469 121.03125 C 94.210938 121.175781 95.078125 121.265625 95.925781 121.410156 C 96.65625 121.53125 97.386719 121.679688 98.117188 121.832031 C 98.59375 121.929688 99.066406 122.035156 99.539062 122.132812 C 99.628906 122.148438 99.75 122.09375 99.8125 122.140625 C 99.992188 122.273438 100.308594 122.460938 100.292969 122.597656 C 100.261719 122.832031 99.976562 122.90625 99.707031 122.863281 C 98.90625 122.726562 98.109375 122.621094 97.320312 122.46875 C 96.476562 122.3125 95.648438 122.117188 94.804688 121.949219 C 93.570312 121.703125 92.34375 121.445312 91.101562 121.230469 C 90.253906 121.078125 89.378906 121.003906 88.53125 120.851562 C 87.265625 120.632812 86 120.355469 84.734375 120.136719 C 83.824219 119.980469 82.890625 119.910156 81.972656 119.761719 C 80.589844 119.535156 79.203125 119.273438 77.820312 119.039062 C 77.300781 118.957031 76.78125 118.910156 76.253906 118.851562 C 75.09375 118.730469 73.921875 118.65625 72.769531 118.472656 C 71.273438 118.242188 69.773438 118.03125 68.261719 117.933594 C 67.15625 117.855469 66.054688 117.707031 64.957031 117.578125 C 64.511719 117.519531 64.085938 117.441406 63.558594 117.382812 Z M 63.558594 117.382812 " fill-opacity="1" fill-rule="nonzero"/><path fill="#b7ad98" d="M 16.96875 112.105469 C 15.328125 112.167969 13.765625 112.144531 12.230469 112.324219 C 11.429688 112.421875 10.640625 112.4375 9.84375 112.46875 C 9.664062 112.476562 9.496094 112.5 9.496094 112.203125 C 9.496094 111.941406 9.617188 111.925781 9.820312 111.917969 C 10.738281 111.867188 11.671875 111.902344 12.558594 111.714844 C 13.726562 111.472656 14.886719 111.683594 16.035156 111.542969 C 19.011719 111.179688 21.992188 111.429688 24.96875 111.382812 C 27.972656 111.332031 30.976562 111.269531 33.972656 111.414062 C 35.710938 111.496094 37.449219 111.429688 39.171875 111.601562 C 40.152344 111.699219 41.128906 111.679688 42.101562 111.746094 C 43.75 111.859375 45.398438 111.972656 47.046875 112.113281 C 48.242188 112.210938 49.429688 112.332031 50.621094 112.484375 C 51.855469 112.640625 53.074219 112.851562 54.308594 113.015625 C 55.007812 113.109375 55.714844 113.121094 56.414062 113.214844 C 57.070312 113.296875 57.710938 113.445312 58.363281 113.558594 C 58.855469 113.640625 59.34375 113.695312 59.832031 113.753906 C 60.902344 113.882812 61.976562 113.964844 63.046875 114.132812 C 64.4375 114.34375 65.816406 114.628906 67.199219 114.847656 C 68.207031 115.003906 69.226562 115.070312 70.234375 115.222656 C 71.136719 115.367188 72.023438 115.582031 72.925781 115.742188 C 73.4375 115.832031 73.964844 115.855469 74.484375 115.945312 C 75.417969 116.101562 76.34375 116.292969 77.277344 116.449219 C 77.789062 116.539062 78.308594 116.578125 78.828125 116.675781 C 80.007812 116.894531 81.183594 117.132812 82.367188 117.351562 C 83.15625 117.503906 83.953125 117.617188 84.742188 117.765625 C 85.835938 117.976562 86.917969 118.234375 88.011719 118.445312 C 88.832031 118.601562 89.660156 118.722656 90.480469 118.859375 C 90.570312 118.871094 90.683594 118.828125 90.75 118.867188 C 90.976562 118.992188 91.179688 119.144531 91.398438 119.285156 C 91.1875 119.382812 90.96875 119.582031 90.757812 119.574219 C 90.207031 119.550781 89.660156 119.46875 89.117188 119.371094 C 88.273438 119.21875 87.4375 119.03125 86.601562 118.859375 C 85.148438 118.558594 83.699219 118.25 82.246094 117.960938 C 81.453125 117.8125 80.648438 117.722656 79.851562 117.578125 C 78.648438 117.351562 77.441406 117.089844 76.230469 116.871094 C 75.410156 116.71875 74.574219 116.621094 73.746094 116.488281 C 72.671875 116.3125 71.59375 116.109375 70.519531 115.945312 C 69.570312 115.800781 68.613281 115.71875 67.667969 115.570312 C 66.671875 115.410156 65.695312 115.199219 64.707031 115.035156 C 64.21875 114.953125 63.730469 114.90625 63.242188 114.847656 C 61.742188 114.664062 60.238281 114.484375 58.742188 114.296875 C 57.363281 114.125 55.980469 113.964844 54.601562 113.738281 C 53.5625 113.566406 52.523438 113.476562 51.476562 113.363281 C 50.320312 113.234375 49.152344 113.109375 47.992188 113.003906 C 46.496094 112.859375 44.996094 112.761719 43.507812 112.617188 C 42.648438 112.535156 41.785156 112.609375 40.941406 112.46875 C 39.449219 112.21875 37.9375 112.46875 36.46875 112.265625 C 34.914062 112.054688 33.363281 112.136719 31.8125 112.128906 C 26.882812 112.085938 21.96875 112.105469 16.96875 112.105469 Z M 16.96875 112.105469 " fill-opacity="1" fill-rule="nonzero"/><path fill="#b7ad98" d="M 172.039062 119.382812 C 173.988281 119.179688 175.847656 119.121094 177.707031 118.976562 C 178.683594 118.902344 179.671875 118.976562 180.632812 118.828125 C 182.125 118.59375 183.636719 118.828125 185.105469 118.625 C 186.691406 118.40625 188.273438 118.496094 189.855469 118.488281 C 195.679688 118.457031 201.496094 118.480469 207.324219 118.472656 C 208.277344 118.472656 209.21875 118.339844 210.121094 117.992188 C 210.265625 117.941406 210.445312 118 210.613281 118.015625 C 210.574219 118.179688 210.582031 118.367188 210.5 118.503906 C 210.191406 118.984375 209.625 118.964844 209.175781 119.007812 C 206.050781 119.339844 202.914062 119.347656 199.796875 119.160156 C 197.296875 119.007812 194.800781 118.972656 192.324219 119.074219 C 189.890625 119.179688 187.453125 119.0625 185.03125 119.257812 C 183.714844 119.363281 182.394531 119.242188 181.101562 119.421875 C 180.023438 119.574219 178.949219 119.4375 177.902344 119.609375 C 176.976562 119.761719 176.058594 119.664062 175.15625 119.777344 C 173.695312 119.949219 172.226562 120.078125 170.761719 120.136719 C 169.535156 120.191406 168.3125 120.363281 167.085938 120.492188 C 165.980469 120.605469 164.882812 120.730469 163.785156 120.851562 C 162.773438 120.964844 161.757812 121.070312 160.75 121.222656 C 159.726562 121.371094 158.71875 121.589844 157.703125 121.753906 C 157.183594 121.839844 156.664062 121.867188 156.144531 121.945312 C 155.03125 122.101562 153.910156 122.152344 152.816406 122.46875 C 152.292969 122.621094 151.71875 122.582031 151.167969 122.671875 C 150.207031 122.824219 149.242188 122.960938 148.292969 123.191406 C 147.488281 123.394531 146.640625 123.425781 145.8125 123.585938 C 144.636719 123.800781 143.46875 124.140625 142.289062 124.277344 C 141.507812 124.367188 140.746094 124.515625 139.984375 124.675781 C 138.316406 125.03125 136.652344 125.398438 134.988281 125.789062 C 134.445312 125.917969 133.925781 126.152344 133.386719 126.292969 C 133.25 126.332031 133.078125 126.21875 132.917969 126.179688 C 133.015625 126.039062 133.078125 125.851562 133.203125 125.757812 C 133.4375 125.609375 133.695312 125.464844 133.964844 125.40625 C 135.476562 125.03125 136.996094 124.675781 138.511719 124.308594 C 139.472656 124.074219 140.421875 123.78125 141.394531 123.589844 C 142.582031 123.367188 143.792969 123.238281 144.984375 123.027344 C 145.796875 122.882812 146.585938 122.636719 147.398438 122.5 C 148.339844 122.34375 149.296875 122.253906 150.25 122.125 C 151.109375 122.011719 151.976562 121.898438 152.824219 121.753906 C 153.390625 121.664062 153.933594 121.476562 154.496094 121.402344 C 155.992188 121.199219 157.5 121.0625 158.996094 120.835938 C 160.464844 120.617188 161.925781 120.371094 163.40625 120.273438 C 164.445312 120.199219 165.484375 120.015625 166.53125 119.917969 C 167.847656 119.792969 169.148438 119.585938 170.472656 119.574219 C 170.964844 119.550781 171.453125 119.445312 172.039062 119.382812 Z M 172.039062 119.382812 " fill-opacity="1" fill-rule="nonzero"/><path fill="#b7ad98" d="M 157.339844 125.253906 C 157.191406 125.332031 157.078125 125.382812 156.972656 125.390625 C 155.691406 125.457031 154.414062 125.488281 153.132812 125.585938 C 151.878906 125.675781 150.621094 125.789062 149.371094 125.953125 C 148.4375 126.082031 147.519531 126.316406 146.59375 126.480469 C 146.449219 126.503906 146.253906 126.414062 146.128906 126.316406 C 145.96875 126.195312 145.902344 126.023438 146.195312 125.949219 C 146.632812 125.828125 147.058594 125.667969 147.503906 125.59375 C 148.046875 125.496094 148.617188 125.511719 149.152344 125.390625 C 150.523438 125.097656 151.9375 125.210938 153.300781 124.855469 C 153.359375 124.839844 153.421875 124.855469 153.480469 124.855469 C 154.667969 124.796875 155.859375 124.78125 157.039062 124.667969 C 159.140625 124.464844 161.246094 124.398438 163.347656 124.261719 C 164.324219 124.203125 165.3125 124.238281 166.273438 124.117188 C 167.886719 123.914062 169.519531 124.097656 171.105469 123.90625 C 172.613281 123.726562 174.101562 123.894531 175.585938 123.757812 C 178.867188 123.472656 182.15625 123.757812 185.429688 123.539062 C 187.625 123.386719 189.816406 123.34375 192 123.441406 C 195.621094 123.597656 199.230469 123.457031 202.84375 123.636719 C 204.492188 123.71875 206.148438 123.589844 207.773438 123.800781 C 209.242188 123.992188 210.703125 123.878906 212.160156 123.960938 C 212.371094 123.976562 212.582031 124.109375 212.785156 124.195312 C 212.566406 124.351562 212.34375 124.660156 212.132812 124.652344 C 211.03125 124.609375 209.917969 124.871094 208.835938 124.503906 C 208.617188 124.425781 208.355469 124.496094 208.113281 124.496094 C 204.621094 124.433594 201.121094 124.503906 197.636719 124.285156 C 192.984375 124 188.339844 124.097656 183.699219 124.195312 C 181.148438 124.246094 178.578125 124.117188 176.042969 124.351562 C 174.394531 124.503906 172.738281 124.320312 171.113281 124.523438 C 169.738281 124.699219 168.351562 124.511719 167.003906 124.714844 C 165.808594 124.894531 164.613281 124.707031 163.4375 124.886719 C 162.359375 125.050781 161.285156 124.902344 160.238281 125.074219 C 159.277344 125.21875 158.335938 125.164062 157.339844 125.253906 Z M 157.339844 125.253906 " fill-opacity="1" fill-rule="nonzero"/><path fill="#b7ad98" d="M 188.054688 114.289062 C 187.6875 114.351562 187.410156 114.449219 187.128906 114.460938 C 185.964844 114.523438 184.796875 114.613281 183.636719 114.824219 C 182.914062 114.953125 182.164062 114.890625 181.449219 115.035156 C 180.460938 115.238281 179.445312 115.207031 178.480469 115.546875 C 178 115.71875 177.445312 115.675781 176.925781 115.75 C 175.621094 115.9375 174.320312 116.117188 173.035156 116.457031 C 172.226562 116.667969 171.371094 116.683594 170.550781 116.847656 C 169.066406 117.148438 167.5625 117.328125 166.09375 117.730469 C 165.046875 118.015625 163.941406 118.074219 162.871094 118.300781 C 161.34375 118.625 159.832031 119.015625 158.3125 119.363281 C 157.921875 119.453125 157.523438 119.511719 157.121094 119.558594 C 156.972656 119.574219 156.738281 119.65625 156.746094 119.339844 C 156.746094 119.136719 156.769531 119.054688 157.023438 119 C 157.628906 118.871094 158.207031 118.609375 158.808594 118.480469 C 160.59375 118.097656 162.390625 117.757812 164.175781 117.375 C 165.507812 117.089844 166.832031 116.742188 168.171875 116.480469 C 169.050781 116.304688 169.957031 116.253906 170.835938 116.09375 C 171.648438 115.953125 172.4375 115.710938 173.25 115.570312 C 174.101562 115.410156 174.984375 115.375 175.824219 115.183594 C 176.773438 114.964844 177.765625 115.003906 178.699219 114.671875 C 179.121094 114.523438 179.609375 114.636719 180.085938 114.5 C 180.726562 114.320312 181.425781 114.371094 182.09375 114.28125 C 182.863281 114.183594 183.628906 114.035156 184.40625 113.929688 C 185.015625 113.84375 185.625 113.785156 186.242188 113.746094 C 187.460938 113.671875 188.6875 113.703125 189.890625 113.535156 C 190.929688 113.394531 191.992188 113.523438 193 113.347656 C 194.167969 113.144531 195.324219 113.304688 196.476562 113.199219 C 199.058594 112.964844 201.640625 113.0625 204.230469 113.003906 C 205.183594 112.980469 206.132812 112.769531 207.082031 112.664062 C 207.230469 112.648438 207.390625 112.746094 207.546875 112.785156 C 207.496094 112.941406 207.488281 113.175781 207.382812 113.25 C 207.15625 113.402344 206.871094 113.535156 206.609375 113.550781 C 204.816406 113.632812 203.019531 113.695312 201.226562 113.738281 C 200.316406 113.761719 199.40625 113.726562 198.496094 113.746094 C 196.734375 113.792969 194.957031 113.769531 193.203125 113.964844 C 192.21875 114.078125 191.238281 113.980469 190.277344 114.140625 C 189.546875 114.25 188.851562 114.28125 188.054688 114.289062 Z M 188.054688 114.289062 " fill-opacity="1" fill-rule="nonzero"/><path fill="#b7ad98" d="M 38.667969 118.15625 C 41.777344 118.113281 44.839844 118.113281 47.902344 118.113281 C 48.21875 118.113281 48.738281 118 48.753906 118.367188 C 48.769531 118.761719 48.257812 118.648438 47.949219 118.65625 C 46.15625 118.714844 44.359375 118.796875 42.566406 118.835938 C 41.234375 118.867188 39.894531 118.761719 38.5625 118.859375 C 35.890625 119.046875 33.203125 118.902344 30.539062 119.070312 C 29.132812 119.160156 27.726562 119.046875 26.339844 119.234375 C 25.324219 119.371094 24.316406 119.292969 23.324219 119.398438 C 21.976562 119.542969 20.636719 119.6875 19.289062 119.769531 C 18.054688 119.851562 16.828125 120.121094 15.601562 120.289062 C 15.300781 120.324219 14.992188 120.308594 14.691406 120.28125 C 14.59375 120.273438 14.449219 120.152344 14.417969 120.054688 C 14.359375 119.859375 14.433594 119.761719 14.691406 119.730469 C 15.40625 119.648438 16.105469 119.46875 16.8125 119.382812 C 18.152344 119.234375 19.515625 119.21875 20.839844 118.976562 C 21.554688 118.851562 22.261719 118.941406 22.945312 118.8125 C 24.046875 118.601562 25.160156 118.789062 26.234375 118.617188 C 27.492188 118.40625 28.742188 118.578125 29.984375 118.457031 C 32.773438 118.195312 35.574219 118.308594 38.367188 118.277344 C 38.472656 118.292969 38.546875 118.234375 38.667969 118.15625 Z M 38.667969 118.15625 " fill-opacity="1" fill-rule="nonzero"/><path fill="#b7ad98" d="M 190.058594 107.554688 C 191.398438 107.492188 192.660156 107.546875 193.886719 107.34375 C 195.144531 107.132812 196.394531 107.3125 197.636719 107.183594 C 199.667969 106.972656 201.714844 106.90625 203.738281 107.050781 C 205.71875 107.191406 207.691406 107.167969 209.664062 107.183594 C 210.03125 107.183594 210.402344 107.027344 210.769531 107.027344 C 210.964844 107.027344 211.160156 107.214844 211.347656 107.3125 C 211.191406 107.457031 211.046875 107.703125 210.882812 107.71875 C 209.882812 107.816406 208.859375 107.996094 207.871094 107.890625 C 204.71875 107.5625 201.558594 107.75 198.398438 107.777344 C 196.945312 107.792969 195.46875 107.800781 194.023438 107.960938 C 193.164062 108.058594 192.300781 107.96875 191.464844 108.117188 C 190.035156 108.375 188.558594 108.269531 187.136719 108.628906 C 186.519531 108.789062 185.851562 108.734375 185.21875 108.832031 C 184.316406 108.976562 183.425781 109.195312 182.523438 109.34375 C 181.035156 109.585938 179.582031 109.933594 178.152344 110.429688 C 178.039062 110.464844 177.863281 110.308594 177.714844 110.242188 C 177.796875 110.074219 177.835938 109.804688 177.964844 109.757812 C 178.574219 109.539062 179.191406 109.34375 179.820312 109.203125 C 180.957031 108.9375 182.101562 108.699219 183.246094 108.472656 C 184.226562 108.277344 185.210938 108.085938 186.203125 107.929688 C 186.777344 107.839844 187.363281 107.800781 187.941406 107.742188 C 188.621094 107.675781 189.289062 107.613281 190.058594 107.554688 Z M 190.058594 107.554688 " fill-opacity="1" fill-rule="nonzero"/><path fill="#b7ad98" d="M 19.875 109.195312 C 22.035156 109.132812 24.113281 109.195312 26.167969 108.976562 C 27.816406 108.796875 29.472656 109.007812 31.097656 108.804688 C 32.625 108.605469 34.160156 108.808594 35.65625 108.613281 C 36.824219 108.457031 37.976562 108.523438 39.136719 108.480469 C 39.261719 108.472656 39.398438 108.605469 39.535156 108.675781 C 39.414062 108.789062 39.308594 108.976562 39.164062 109.007812 C 38.683594 109.105469 38.1875 109.179688 37.699219 109.195312 C 35.476562 109.269531 33.25 109.195312 31.042969 109.425781 C 29.417969 109.59375 27.800781 109.398438 26.203125 109.59375 C 24.527344 109.804688 22.839844 109.601562 21.183594 109.789062 C 20.167969 109.902344 19.160156 109.832031 18.167969 109.9375 C 16.429688 110.128906 14.691406 110.226562 12.953125 110.324219 C 11.605469 110.398438 10.273438 110.667969 8.917969 110.660156 C 8.828125 110.660156 8.707031 110.648438 8.660156 110.699219 C 8.34375 111.03125 8.113281 110.757812 8.074219 110.535156 C 8.027344 110.234375 8.300781 110.136719 8.609375 110.113281 C 10.078125 110.007812 11.550781 109.925781 13.003906 109.742188 C 14.53125 109.554688 16.050781 109.40625 17.585938 109.382812 C 18.324219 109.359375 19.054688 109.253906 19.875 109.195312 Z M 19.875 109.195312 " fill-opacity="1" fill-rule="nonzero"/></svg>