<svg xmlns="http://www.w3.org/2000/svg" version="1.1" xmlns:xlink="http://www.w3.org/1999/xlink" xmlns:svgjs="http://svgjs.dev/svgjs" width="500" height="500"><svg xmlns="http://www.w3.org/2000/svg" xmlns:xlink="http://www.w3.org/1999/xlink" width="500" zoomAndPan="magnify" viewBox="0 0 375 374.999991" height="500" preserveAspectRatio="xMidYMid meet" version="1.0"><defs><filter x="0%" y="0%" width="100%" height="100%" id="SvgjsFilter1109"><feColorMatrix values="0 0 0 0 1 0 0 0 0 1 0 0 0 0 1 0 0 0 1 0" color-interpolation-filters="sRGB"></feColorMatrix></filter><clipPath id="SvgjsClipPath1108"><path d="M 134 30 L 351.601562 30 L 351.601562 359.097656 L 134 359.097656 Z M 134 30 " clip-rule="nonzero"></path></clipPath><clipPath id="SvgjsClipPath1107"><path d="M 23.101562 15.597656 L 324 15.597656 L 324 350 L 23.101562 350 Z M 23.101562 15.597656 " clip-rule="nonzero"></path></clipPath><clipPath id="SvgjsClipPath1106"><path d="M 23.101562 90 L 157 90 L 157 350 L 23.101562 350 Z M 23.101562 90 " clip-rule="nonzero"></path></clipPath><mask id="SvgjsMask1105"><g filter="url(#b50b169624)"><rect x="-37.5" width="450" fill="#000000" y="-37.499999" height="449.999989" fill-opacity="0.4"></rect></g></mask><clipPath id="SvgjsClipPath1104"><path d="M 1 0.359375 L 249 0.359375 L 249 208.921875 L 1 208.921875 Z M 1 0.359375 " clip-rule="nonzero"></path></clipPath><clipPath id="SvgjsClipPath1103"><rect x="0" width="250" y="0" height="209"></rect></clipPath><clipPath id="SvgjsClipPath1102"><path d="M 142 38 L 266 38 L 266 300 L 142 300 Z M 142 38 " clip-rule="nonzero"></path></clipPath><clipPath id="SvgjsClipPath1101"><path d="M 142.128906 46.46875 L 162.675781 38.085938 L 265.9375 291.195312 L 245.386719 299.578125 Z M 142.128906 46.46875 " clip-rule="nonzero"></path></clipPath><clipPath id="SvgjsClipPath1100"><path d="M 51 78 L 250 78 L 250 184 L 51 184 Z M 51 78 " clip-rule="nonzero"></path></clipPath><clipPath id="SvgjsClipPath1099"><path d="M 60.65625 183.253906 L 51.355469 162.3125 L 240.589844 78.253906 L 249.890625 99.195312 Z M 60.65625 183.253906 " clip-rule="nonzero"></path></clipPath><clipPath id="SvgjsClipPath1098"><path d="M 84 28 L 269 28 L 269 211 L 84 211 Z M 84 28 " clip-rule="nonzero"></path></clipPath><clipPath id="SvgjsClipPath1097"><path d="M 84.09375 82.992188 L 213.230469 26.386719 L 268.933594 153.464844 L 139.796875 210.070312 Z M 84.09375 82.992188 " clip-rule="nonzero"></path></clipPath><clipPath id="SvgjsClipPath1096"><path d="M 4.816406 117.742188 L 212.949219 26.507812 L 294.847656 213.347656 L 86.714844 304.578125 Z M 4.816406 117.742188 " clip-rule="nonzero"></path></clipPath><clipPath id="SvgjsClipPath1095"><path d="M 4.933594 117.691406 L 209.871094 27.859375 L 291.679688 214.492188 L 86.742188 304.320312 Z M 4.933594 117.691406 " clip-rule="nonzero"></path></clipPath><clipPath id="SvgjsClipPath1094"><path d="M 146 46 L 245 46 L 245 211 L 146 211 Z M 146 46 " clip-rule="nonzero"></path></clipPath><clipPath id="SvgjsClipPath1093"><path d="M 84.09375 82.992188 L 213.230469 26.386719 L 268.933594 153.464844 L 139.796875 210.070312 Z M 84.09375 82.992188 " clip-rule="nonzero"></path></clipPath><clipPath id="SvgjsClipPath1092"><path d="M 4.816406 117.742188 L 212.949219 26.507812 L 294.847656 213.347656 L 86.714844 304.578125 Z M 4.816406 117.742188 " clip-rule="nonzero"></path></clipPath><clipPath id="SvgjsClipPath1091"><path d="M 140.433594 58.296875 L 166.957031 46.671875 L 248.761719 233.304688 L 222.242188 244.929688 Z M 140.433594 58.296875 " clip-rule="nonzero"></path></clipPath><clipPath id="SvgjsClipPath1090"><path d="M 84 80 L 242 80 L 242 192 L 84 192 Z M 84 80 " clip-rule="nonzero"></path></clipPath><clipPath id="SvgjsClipPath1089"><path d="M 84.09375 82.992188 L 213.230469 26.386719 L 268.933594 153.464844 L 139.796875 210.070312 Z M 84.09375 82.992188 " clip-rule="nonzero"></path></clipPath><clipPath id="SvgjsClipPath1088"><path d="M 4.816406 117.742188 L 212.949219 26.507812 L 294.847656 213.347656 L 86.714844 304.578125 Z M 4.816406 117.742188 " clip-rule="nonzero"></path></clipPath><clipPath id="SvgjsClipPath1087"><path d="M 29.632812 170.097656 L 236.265625 79.523438 L 246.199219 102.1875 L 39.566406 192.761719 Z M 29.632812 170.097656 " clip-rule="nonzero"></path></clipPath><clipPath id="SvgjsClipPath1086"><path d="M 120 72 L 184 72 L 184 124 L 120 124 Z M 120 72 " clip-rule="nonzero"></path></clipPath><clipPath id="SvgjsClipPath1085"><path d="M 84.09375 82.992188 L 213.230469 26.386719 L 268.933594 153.464844 L 139.796875 210.070312 Z M 84.09375 82.992188 " clip-rule="nonzero"></path></clipPath><clipPath id="SvgjsClipPath1084"><path d="M 4.816406 117.742188 L 212.949219 26.507812 L 294.847656 213.347656 L 86.714844 304.578125 Z M 4.816406 117.742188 " clip-rule="nonzero"></path></clipPath><clipPath id="SvgjsClipPath1083"><path d="M 180 68 L 242 68 L 242 122 L 180 122 Z M 180 68 " clip-rule="nonzero"></path></clipPath><clipPath id="SvgjsClipPath1082"><path d="M 84.09375 82.992188 L 213.230469 26.386719 L 268.933594 153.464844 L 139.796875 210.070312 Z M 84.09375 82.992188 " clip-rule="nonzero"></path></clipPath><clipPath id="SvgjsClipPath1081"><path d="M 4.816406 117.742188 L 212.949219 26.507812 L 294.847656 213.347656 L 86.714844 304.578125 Z M 4.816406 117.742188 " clip-rule="nonzero"></path></clipPath><clipPath id="SvgjsClipPath1080"><path d="M 165.71875 89.75 L 228.65625 62.164062 L 247.679688 105.5625 L 184.742188 133.148438 Z M 165.71875 89.75 " clip-rule="nonzero"></path></clipPath><clipPath id="SvgjsClipPath1079"><path d="M 188 97 L 216 97 L 216 115 L 188 115 Z M 188 97 " clip-rule="nonzero"></path></clipPath><clipPath id="SvgjsClipPath1078"><path d="M 84.09375 82.992188 L 213.230469 26.386719 L 268.933594 153.464844 L 139.796875 210.070312 Z M 84.09375 82.992188 " clip-rule="nonzero"></path></clipPath><clipPath id="SvgjsClipPath1077"><path d="M 4.816406 117.742188 L 212.949219 26.507812 L 294.847656 213.347656 L 86.714844 304.578125 Z M 4.816406 117.742188 " clip-rule="nonzero"></path></clipPath><clipPath id="SvgjsClipPath1076"><path d="M 185 111 L 217 111 L 217 117 L 185 117 Z M 185 111 " clip-rule="nonzero"></path></clipPath><clipPath id="SvgjsClipPath1075"><path d="M 84.09375 82.992188 L 213.230469 26.386719 L 268.933594 153.464844 L 139.796875 210.070312 Z M 84.09375 82.992188 " clip-rule="nonzero"></path></clipPath><clipPath id="SvgjsClipPath1074"><path d="M 4.816406 117.742188 L 212.949219 26.507812 L 294.847656 213.347656 L 86.714844 304.578125 Z M 4.816406 117.742188 " clip-rule="nonzero"></path></clipPath><clipPath id="SvgjsClipPath1073"><path d="M 131 113 L 186 113 L 186 174 L 131 174 Z M 131 113 " clip-rule="nonzero"></path></clipPath><clipPath id="SvgjsClipPath1072"><path d="M 84.09375 82.992188 L 213.230469 26.386719 L 268.933594 153.464844 L 139.796875 210.070312 Z M 84.09375 82.992188 " clip-rule="nonzero"></path></clipPath><clipPath id="SvgjsClipPath1071"><path d="M 4.816406 117.742188 L 212.949219 26.507812 L 294.847656 213.347656 L 86.714844 304.578125 Z M 4.816406 117.742188 " clip-rule="nonzero"></path></clipPath><clipPath id="SvgjsClipPath1070"><path d="M 175 110 L 235 110 L 235 166 L 175 166 Z M 175 110 " clip-rule="nonzero"></path></clipPath><clipPath id="SvgjsClipPath1069"><path d="M 84.09375 82.992188 L 213.230469 26.386719 L 268.933594 153.464844 L 139.796875 210.070312 Z M 84.09375 82.992188 " clip-rule="nonzero"></path></clipPath><clipPath id="SvgjsClipPath1068"><path d="M 4.816406 117.742188 L 212.949219 26.507812 L 294.847656 213.347656 L 86.714844 304.578125 Z M 4.816406 117.742188 " clip-rule="nonzero"></path></clipPath><clipPath id="SvgjsClipPath1067"><path d="M 171 107 L 194 107 L 194 126 L 171 126 Z M 171 107 " clip-rule="nonzero"></path></clipPath><clipPath id="SvgjsClipPath1066"><path d="M 84.09375 82.992188 L 213.230469 26.386719 L 268.933594 153.464844 L 139.796875 210.070312 Z M 84.09375 82.992188 " clip-rule="nonzero"></path></clipPath><clipPath id="SvgjsClipPath1065"><path d="M 4.816406 117.742188 L 212.949219 26.507812 L 294.847656 213.347656 L 86.714844 304.578125 Z M 4.816406 117.742188 " clip-rule="nonzero"></path></clipPath><clipPath id="SvgjsClipPath1064"><path d="M 149 98 L 178 98 L 178 116 L 149 116 Z M 149 98 " clip-rule="nonzero"></path></clipPath><clipPath id="SvgjsClipPath1063"><path d="M 84.09375 82.992188 L 213.230469 26.386719 L 268.933594 153.464844 L 139.796875 210.070312 Z M 84.09375 82.992188 " clip-rule="nonzero"></path></clipPath><clipPath id="SvgjsClipPath1062"><path d="M 4.816406 117.742188 L 212.949219 26.507812 L 294.847656 213.347656 L 86.714844 304.578125 Z M 4.816406 117.742188 " clip-rule="nonzero"></path></clipPath><clipPath id="SvgjsClipPath1061"><path d="M 148 113 L 181 113 L 181 118 L 148 118 Z M 148 113 " clip-rule="nonzero"></path></clipPath><clipPath id="SvgjsClipPath1060"><path d="M 84.09375 82.992188 L 213.230469 26.386719 L 268.933594 153.464844 L 139.796875 210.070312 Z M 84.09375 82.992188 " clip-rule="nonzero"></path></clipPath><clipPath id="SvgjsClipPath1059"><path d="M 4.816406 117.742188 L 212.949219 26.507812 L 294.847656 213.347656 L 86.714844 304.578125 Z M 4.816406 117.742188 " clip-rule="nonzero"></path></clipPath></defs><g clip-path="url(#13f3dbbfc3)"><path fill="#b7ad98" d="M 197.605469 38.351562 C 212.769531 35.828125 227.941406 33.300781 243.105469 30.773438 C 279.339844 113.351562 315.566406 195.921875 351.800781 278.503906 C 288.601562 305.464844 225.414062 332.429688 162.214844 359.390625 C 152.941406 356.019531 143.679688 352.644531 134.40625 349.285156 C 155.46875 245.628906 176.53125 141.988281 197.605469 38.351562 Z M 197.605469 38.351562 " fill-opacity="1" fill-rule="nonzero"></path></g><g clip-path="url(#70b0ce016f)"><path fill="#b7ad98" d="M 23.179688 99.015625 L 212.769531 15.597656 L 323.992188 265.855469 L 134.40625 349.273438 Z M 23.179688 99.015625 " fill-opacity="1" fill-rule="nonzero"></path></g><g clip-path="url(#e795cf50f2)"><path fill="#03635d" d="M 23.179688 99.015625 L 43.585938 90.039062 L 156.148438 339.433594 L 134.40625 349.273438 Z M 23.179688 99.015625 " fill-opacity="1" fill-rule="nonzero"></path></g><g mask="url(#ddb2b1aad7)"><g transform="matrix(1, 0, 0, 1, 41, 141)"><g clip-path="url(#ccc88987c7)"><g clip-path="url(#c7d4791f22)"><path fill="#372212" d="M 1.203125 0.8125 L 93.40625 208.273438 L 248.707031 139.9375 C 125.792969 111.46875 46.226562 48.476562 1.203125 0.8125 Z M 1.203125 0.8125 " fill-opacity="1" fill-rule="nonzero"></path></g></g></g></g><path fill="#f4f1ea" d="M 142.285156 345.808594 L 162.214844 353.417969 L 344.21875 275.964844 L 238.246094 31.578125 L 215.5625 21.902344 C 251.707031 103.222656 287.847656 184.535156 323.980469 265.855469 C 263.425781 292.5 202.855469 319.152344 142.285156 345.808594 Z M 142.285156 345.808594 " fill-opacity="1" fill-rule="nonzero"></path><g clip-path="url(#998da313e3)"><g clip-path="url(#f124d45ab7)"><path fill="#c15a0b" d="M 142.128906 46.46875 L 162.675781 38.085938 L 265.925781 291.171875 L 245.378906 299.554688 Z M 142.128906 46.46875 " fill-opacity="1" fill-rule="nonzero"></path></g></g><g clip-path="url(#3a6c1f3d67)"><g clip-path="url(#7b8dcf3167)"><path fill="#c15a0b" d="M 60.65625 183.253906 L 51.355469 162.3125 L 240.574219 78.261719 L 249.875 99.203125 Z M 60.65625 183.253906 " fill-opacity="1" fill-rule="nonzero"></path></g></g><g clip-path="url(#80da18fd08)"><g clip-path="url(#e9f42ce181)"><g clip-path="url(#8dfaaed632)"><g clip-path="url(#842e20cb10)"><path fill="#b7ad98" d="M 209.527344 28.007812 L 214.164062 39.59375 L 217.902344 48.914062 L 226.992188 71.597656 L 231.210938 82.128906 L 238.785156 101.03125 L 239.097656 101.824219 L 240.214844 104.605469 L 247.035156 121.628906 L 285.347656 217.265625 L 92.722656 301.699219 L 48.800781 209.632812 L 40.046875 191.277344 L 38.363281 187.75 L 30.515625 171.296875 L 14.632812 138.015625 L 10.308594 128.949219 L 4.933594 117.6875 L 209.527344 28.007812 " fill-opacity="1" fill-rule="nonzero"></path></g></g></g></g><g clip-path="url(#d669f5acb7)"><g clip-path="url(#fe75a64092)"><g clip-path="url(#ab8733f3ce)"><g clip-path="url(#eaf6b999cf)"><path fill="#c15a0b" d="M 166.570312 46.835938 L 176.691406 71.28125 L 181.457031 82.808594 L 187.425781 97.214844 L 188.949219 100.910156 L 193.511719 111.917969 L 195.269531 116.175781 L 197.167969 120.765625 L 197.171875 120.773438 L 197.402344 121.308594 L 198.039062 122.863281 L 206.585938 143.5 L 206.671875 143.714844 L 206.675781 143.722656 L 215.421875 164.835938 L 244.527344 235.160156 L 222.390625 244.863281 L 193.753906 173.8125 L 185.035156 152.183594 L 177.386719 133.210938 L 176.90625 132.015625 L 173.195312 122.796875 L 173.191406 122.789062 L 171.941406 119.679688 L 171.417969 118.390625 L 170.90625 117.125 L 168.519531 111.203125 L 168.101562 110.167969 L 160.523438 91.359375 L 155.867188 79.789062 L 154.566406 76.546875 L 154.5625 76.539062 L 146.1875 55.773438 L 166.570312 46.835938 " fill-opacity="1" fill-rule="nonzero"></path></g></g></g></g><g clip-path="url(#a743bafe6d)"><g clip-path="url(#9d6d6aec92)"><g clip-path="url(#0061004a89)"><g clip-path="url(#7cef267f3e)"><path fill="#c15a0b" d="M 239.097656 101.824219 L 240.214844 104.605469 L 235.945312 106.453125 L 202.824219 120.792969 L 202.816406 120.796875 L 199.335938 122.304688 L 198.039062 122.863281 L 186.507812 127.859375 L 178.601562 131.28125 L 176.90625 132.015625 L 167.355469 136.152344 L 157.128906 140.585938 L 146.164062 145.332031 L 85.886719 171.433594 L 74.441406 176.386719 L 40.046875 191.277344 L 38.363281 187.75 L 30.515625 171.296875 L 65.402344 155.789062 L 76.800781 150.726562 L 136.734375 124.101562 L 144.128906 120.816406 L 144.132812 120.816406 L 156.296875 115.40625 L 158.042969 114.632812 L 167.222656 110.558594 L 168.101562 110.167969 L 177.484375 105.992188 L 185.433594 102.464844 L 188.949219 100.910156 L 231.210938 82.128906 L 235.597656 80.183594 C 240.582031 86.992188 243.003906 94.238281 239.097656 101.824219 " fill-opacity="1" fill-rule="nonzero"></path></g></g></g></g><g clip-path="url(#16c009c2ec)"><g clip-path="url(#67853c8ad2)"><g clip-path="url(#33098cb5c5)"><path fill="#e87402" d="M 157.578125 78.332031 C 173.652344 88.660156 183.503906 121.871094 183.503906 121.871094 C 183.503906 121.871094 149.203125 126.707031 133.128906 116.378906 C 117.054688 106.050781 118.546875 94.972656 125.296875 84.46875 C 132.050781 73.960938 141.503906 68.003906 157.578125 78.332031 " fill-opacity="1" fill-rule="nonzero"></path></g></g></g><g clip-path="url(#fde68f8022)"><g clip-path="url(#dca2cafbbf)"><g clip-path="url(#cfbdcf2927)"><g clip-path="url(#ef8a36c08d)"><path fill="#e87402" d="M 239.097656 101.824219 C 238.316406 103.363281 237.269531 104.90625 235.945312 106.453125 C 234.40625 108.261719 232.484375 110.078125 230.128906 111.914062 C 223.371094 117.183594 212.617188 119.667969 202.824219 120.792969 L 202.816406 120.796875 C 201.132812 120.992188 199.480469 121.148438 197.882812 121.265625 C 197.722656 121.285156 197.554688 121.296875 197.402344 121.308594 C 195.890625 121.417969 194.433594 121.496094 193.046875 121.5625 C 189.664062 121.707031 186.699219 121.722656 184.476562 121.695312 C 184.109375 121.6875 183.765625 121.675781 183.441406 121.675781 C 181.363281 121.628906 180.15625 121.558594 180.15625 121.558594 C 180.15625 121.558594 180.503906 119.738281 181.210938 116.792969 C 181.292969 116.476562 181.367188 116.148438 181.457031 115.804688 C 181.8125 114.359375 182.253906 112.703125 182.761719 110.886719 C 183.035156 109.945312 183.324219 108.964844 183.632812 107.945312 C 184.171875 106.195312 184.769531 104.355469 185.433594 102.464844 C 186.039062 100.742188 186.707031 98.980469 187.425781 97.214844 C 190.855469 88.777344 195.5625 80.234375 201.707031 75.449219 C 212.261719 67.222656 220.378906 67.332031 226.992188 71.597656 C 229.824219 73.421875 232.371094 76.003906 234.726562 79.023438 C 235.019531 79.410156 235.316406 79.796875 235.597656 80.183594 C 240.582031 86.992188 243.003906 94.238281 239.097656 101.824219 " fill-opacity="1" fill-rule="nonzero"></path></g></g></g></g><g clip-path="url(#fb73466f3a)"><g clip-path="url(#ab8824177f)"><g clip-path="url(#d9f3a947c1)"><path fill="#c15a0b" d="M 188.625 114.726562 L 188.1875 113.734375 C 192.773438 111.710938 197.632812 109.496094 202.164062 106.632812 C 206.773438 103.710938 211.164062 100.289062 214.847656 97.324219 L 215.527344 98.167969 C 211.816406 101.152344 207.402344 104.597656 202.742188 107.546875 C 198.148438 110.453125 193.25 112.6875 188.625 114.726562 " fill-opacity="1" fill-rule="nonzero"></path></g></g></g><g clip-path="url(#0ded6ae888)"><g clip-path="url(#1a37357627)"><g clip-path="url(#02d6cec206)"><path fill="#c15a0b" d="M 216.789062 112.824219 C 212.183594 114.023438 206.738281 115.355469 201.28125 116.132812 C 195.898438 116.898438 190.515625 116.921875 185.460938 116.882812 L 185.46875 115.800781 C 190.484375 115.839844 195.820312 115.8125 201.128906 115.058594 C 206.535156 114.289062 211.941406 112.96875 216.515625 111.777344 L 216.789062 112.824219 " fill-opacity="1" fill-rule="nonzero"></path></g></g></g><g clip-path="url(#96caad3e19)"><g clip-path="url(#aa8297ca87)"><g clip-path="url(#0fe788bf2e)"><path fill="#e87402" d="M 143.726562 173.144531 C 141.6875 171.816406 150.449219 162.195312 147.445312 160.402344 C 144.84375 158.828125 133.40625 166.472656 131.222656 164.925781 C 153.601562 149.511719 164.855469 130.285156 176.078125 113.378906 C 179.207031 115.484375 182.367188 117.585938 185.707031 119.667969 C 175.417969 136.492188 164.566406 155.65625 143.726562 173.144531 " fill-opacity="1" fill-rule="nonzero"></path></g></g></g><g clip-path="url(#be728bec7a)"><g clip-path="url(#2326bdc290)"><g clip-path="url(#a830da0dd6)"><path fill="#e87402" d="M 234.753906 154.933594 C 233.425781 156.71875 223.855469 147.515625 221.984375 150.242188 C 220.335938 152.558594 228.042969 163.996094 226.550781 165.933594 C 210.691406 143.464844 191.964844 132.066406 175.601562 119.988281 C 177.832031 116.949219 180.046875 113.839844 182.21875 110.507812 C 198.347656 121.589844 217.5 133.496094 234.753906 154.933594 " fill-opacity="1" fill-rule="nonzero"></path></g></g></g><g clip-path="url(#6731cada92)"><g clip-path="url(#47db1e6e37)"><g clip-path="url(#dc8dc086ff)"><path fill="#c15a0b" d="M 171.523438 116.917969 C 172.269531 111.410156 176.945312 107.035156 183.367188 107.90625 C 189.792969 108.777344 194.386719 114.007812 193.636719 119.515625 C 192.890625 125.023438 186.992188 126.375 180.570312 125.503906 C 174.144531 124.628906 170.773438 122.425781 171.523438 116.917969 " fill-opacity="1" fill-rule="nonzero"></path></g></g></g><g clip-path="url(#140866fb75)"><g clip-path="url(#a274158c5b)"><g clip-path="url(#abbe6247e0)"><path fill="#c15a0b" d="M 176.96875 115.488281 C 172.292969 113.578125 167.335938 111.472656 162.664062 108.691406 C 157.933594 105.867188 153.421875 102.539062 149.636719 99.65625 L 150.292969 98.796875 C 154.242188 101.804688 158.546875 104.972656 163.222656 107.761719 C 167.824219 110.503906 172.742188 112.585938 177.382812 114.488281 L 176.96875 115.488281 " fill-opacity="1" fill-rule="nonzero"></path></g></g></g><g clip-path="url(#b4a2deed8b)"><g clip-path="url(#26515002ef)"><g clip-path="url(#ca5daafec0)"><path fill="#c15a0b" d="M 180.1875 117.5625 C 175.136719 117.734375 169.757812 117.855469 164.355469 117.234375 C 158.878906 116.601562 153.402344 115.417969 148.765625 114.339844 L 149.011719 113.285156 C 153.617188 114.355469 159.058594 115.53125 164.480469 116.15625 C 169.804688 116.769531 175.140625 116.652344 180.152344 116.480469 L 180.1875 117.5625 " fill-opacity="1" fill-rule="nonzero"></path></g></g></g></svg><style>@media (prefers-color-scheme: light) { :root { filter: none; } }
@media (prefers-color-scheme: dark) { :root { filter: none; } }
</style></svg>